<svg width="479" height="916" viewBox="0 0 479 916" xmlns="http://www.w3.org/2000/svg">
    <path fill-rule="evenodd" clip-rule="evenodd"
        d="M233.652 582.474C264.878 516.9 273.81 440.303 253.539 364.65C242.701 324.204 224.5 287.697 200.763 256.186C199.518 257.108 197.977 257.654 196.308 257.654C192.169 257.654 188.814 254.299 188.814 250.16C188.814 247.867 189.845 245.814 191.468 244.44C114.953 152.337 -10.7961 107.861 -134.038 140.883C-302.855 186.118 -403.039 359.642 -357.805 528.459C-312.57 697.277 -139.046 797.461 29.7714 752.227C120.119 728.018 190.809 667.065 230.071 589.755C228.804 589.068 227.944 587.726 227.944 586.184C227.944 583.942 229.761 582.125 232.003 582.125C232.59 582.125 233.148 582.25 233.652 582.474ZM234.276 582.821C265.588 517.091 274.548 440.305 254.227 364.466C243.362 323.919 225.114 287.322 201.315 255.735C202.842 254.363 203.802 252.374 203.802 250.16C203.802 246.022 200.447 242.667 196.308 242.667C194.719 242.667 193.246 243.161 192.033 244.005C115.348 151.682 -10.6939 107.096 -134.222 140.195C-303.42 185.531 -403.829 359.446 -358.493 528.644C-313.157 697.842 -139.242 798.251 29.9559 752.915C120.522 728.648 191.38 667.541 230.726 590.038C231.128 590.171 231.557 590.243 232.003 590.243C234.245 590.243 236.062 588.426 236.062 586.184C236.062 584.785 235.354 583.551 234.276 582.821Z"
        fill="white" />
    <path opacity="0.2" fill-rule="evenodd" clip-rule="evenodd"
        d="M462.076 339.695C527.318 583.183 382.822 833.458 139.334 898.701C-104.154 963.943 -354.429 819.447 -419.671 575.959C-484.914 332.471 -340.417 82.1959 -96.9295 16.9536C113.575 -39.451 329.153 60.9088 425.853 246.47C425.037 247.033 424.502 247.975 424.502 249.042C424.502 250.767 425.9 252.164 427.624 252.164C427.994 252.164 428.349 252.1 428.678 251.982C442.53 279.474 453.794 308.787 462.076 339.695ZM429.317 251.666C443.19 279.199 454.47 308.556 462.764 339.511C528.108 583.379 383.386 834.045 139.518 899.389C-104.349 964.733 -355.015 820.011 -420.36 576.143C-485.704 332.275 -340.982 81.6095 -97.1139 16.2653C113.717 -40.2267 329.629 60.2874 426.482 246.135C426.836 245.996 427.221 245.92 427.624 245.92C429.348 245.92 430.746 247.318 430.746 249.042C430.746 250.143 430.177 251.11 429.317 251.666Z"
        fill="white" />
    <path opacity="0.5" fill-rule="evenodd" clip-rule="evenodd"
        d="M260.711 724.723C214.978 769.46 157.45 803.404 91.252 821.142C-114.235 876.202 -325.45 754.257 -380.511 548.769C-435.571 343.282 -313.626 132.067 -108.138 77.0069C97.3488 21.9468 308.564 143.892 363.624 349.379C400.023 485.223 359.066 623.57 267.756 717.65C266.867 716.837 265.683 716.34 264.383 716.34C261.624 716.34 259.387 718.577 259.387 721.336C259.387 722.643 259.889 723.833 260.711 724.723ZM261.231 725.211C215.409 770.042 157.767 804.057 91.4364 821.83C-114.431 876.992 -326.037 754.821 -381.199 548.954C-436.361 343.087 -314.19 131.481 -108.323 76.3186C97.5445 21.1567 309.151 143.327 364.312 349.195C400.782 485.3 359.74 623.913 268.246 718.168C268.954 719.03 269.379 720.133 269.379 721.336C269.379 724.095 267.142 726.331 264.383 726.331C263.188 726.331 262.09 725.912 261.231 725.211Z"
        fill="white" />
</svg>