<svg width="20" height="20" viewBox="0 0 20 20" fill="none" xmlns="http://www.w3.org/2000/svg">
<path d="M8.05596 16.6666C9.28594 16.6666 10.2782 15.6744 10.2782 14.4444V12.2222H8.05596C6.82599 12.2222 5.83374 13.2144 5.83374 14.4444C5.83374 15.6744 6.82599 16.6666 8.05596 16.6666Z" fill="#0ACF83"/>
<path d="M5.83374 10.0001C5.83374 8.77008 6.82599 7.77783 8.05596 7.77783H10.2782V12.2223H8.05596C6.82599 12.2223 5.83374 11.23 5.83374 10.0001Z" fill="#A259FF"/>
<path d="M5.83374 5.55547C5.83374 4.3255 6.82599 3.33325 8.05596 3.33325H10.2782V7.7777H8.05596C6.82599 7.7777 5.83374 6.78545 5.83374 5.55547Z" fill="#F24E1E"/>
<path d="M10.2786 3.33325H12.5008C13.7308 3.33325 14.723 4.3255 14.723 5.55547C14.723 6.78545 13.7308 7.7777 12.5008 7.7777H10.2786V3.33325Z" fill="#FF7262"/>
<path d="M14.723 10.0001C14.723 11.23 13.7308 12.2223 12.5008 12.2223C11.2708 12.2223 10.2786 11.23 10.2786 10.0001C10.2786 8.77008 11.2708 7.77783 12.5008 7.77783C13.7308 7.77783 14.723 8.77008 14.723 10.0001Z" fill="#1ABCFE"/>
</svg>
