<svg xmlns="http://www.w3.org/2000/svg" width="100" height="46" fill="none"><path fill="#D93D30" fill-rule="evenodd" d="M53.88 33.677c-.459.147-.916.292-1.372.435l-1.159.36c-25.276 7.761-46.954 9.117-49.001 2.915C.776 32.624 11.219 24.745 27.5 17.54l2.164-.94c1.33-.565 2.695-1.126 4.092-1.68l1.977-.77c1.075-.411 2.166-.818 3.274-1.22l6.205-2.136a216.508 216.508 0 0 1 4.296-1.352l7.5-2.115C78.596 1.705 95.93 1.245 97.75 6.76c1.433 4.341-7.115 11.27-20.966 17.918l-1.09.518c-.933.438-1.889.874-2.865 1.308l-1.023.45a178.786 178.786 0 0 1-8.25 3.35l-1.16.433c-.43.16-.861.318-1.296.475l-1.295.465a206.091 206.091 0 0 1-5.926 2.001Zm5.695-2.626a205.585 205.585 0 0 1-7.27 2.428l-1.156.358h-.001c-12.603 3.87-24.286 6.136-33.052 6.665-4.388.266-8.005.093-10.63-.51-2.671-.614-4.083-1.616-4.477-2.811-.302-.913-.063-2.081.9-3.527.956-1.436 2.56-3.042 4.758-4.753 4.388-3.418 11.013-7.163 19.126-10.753h.003l2.155-.936.002-.001c1.324-.563 2.682-1.12 4.072-1.672h.002l1.97-.768h.002c1.068-.41 2.154-.815 3.255-1.214l6.195-2.133a212.909 212.909 0 0 1 4.27-1.344l7.489-2.11c10.759-2.803 20.43-4.311 27.616-4.439 3.598-.063 6.533.22 8.657.837 2.152.626 3.299 1.538 3.648 2.597.275.832.102 1.874-.663 3.152-.763 1.276-2.069 2.701-3.885 4.23-3.628 3.055-9.17 6.42-16.07 9.732h-.002l-1.086.516c-.928.436-1.878.87-2.85 1.302l-1.02.448a178.099 178.099 0 0 1-8.218 3.336l-1.156.433h-.001c-.427.159-.857.316-1.289.473h-.001l-1.291.464h-.002Z" clip-rule="evenodd"/><path fill="#D93D30" fill-rule="evenodd" d="m48.067 33.759-1.221.075h-.001c-2.33.138-4.619.233-6.853.287h-.002l-1.153.024h-.001c-1.145.021-2.276.031-3.39.03h-.002l-1.831-.01h-.002a161.549 161.549 0 0 1-4.336-.105h-.003l-1.898-.085h-.002a136.287 136.287 0 0 1-3.045-.188h-.002l-1.355-.107h-.002a104.795 104.795 0 0 1-5.909-.66l-1.26-.188h-.002c-4.664-.734-8.428-1.745-11.043-2.969C2.088 28.615.85 27.26.744 25.951c-.056-.68.182-1.417.786-2.217.607-.805 1.56-1.64 2.86-2.485 2.596-1.687 6.453-3.334 11.296-4.827l2.307-.679c1.038-.291 2.113-.575 3.222-.85l3.483-.814c.949-.208 1.919-.41 2.908-.607h.002l2.17-.413.003-.001c1.583-.29 3.212-.565 4.88-.82h.001l2.172-.32.002-.001a188.798 188.798 0 0 1 2.78-.372l2.307-.278h.002l1.015-.113h.002l2.104-.219h.002c1.33-.131 2.675-.25 4.034-.358l.1-.008h.005l2.783-.2h.002c1.602-.104 3.186-.188 4.747-.252h.002l2.647-.092h.002a189.733 189.733 0 0 1 2.645-.055l2.17-.017h.003c4.08-.007 7.943.127 11.513.389h.003l2.176.179h.003a101.281 101.281 0 0 1 5.544.653l2.16.349h.005c4.266.75 7.689 1.744 10.06 2.925 2.415 1.201 3.532 2.488 3.633 3.73.069.844-.318 1.784-1.295 2.813-.976 1.029-2.482 2.08-4.484 3.12-4 2.078-9.837 4.034-16.942 5.662l-1.085.244c-.69.152-1.39.301-2.1.446h-.001l-1.257.252h-.001c-2.609.512-5.35.978-8.198 1.392h-.001l-1.193.17c-.74.103-1.485.202-2.238.297l-1.494.183h-.001c-2.104.25-4.256.472-6.446.662h-.001l-1.602.133h-.002c-.965.076-1.924.145-2.876.206Zm.045.663-1.226.076c-2.34.138-4.636.233-6.879.287l-1.158.025c-1.15.02-2.286.03-3.405.03l-1.839-.01c-1.485-.017-2.94-.052-4.358-.106l-1.907-.085a136.894 136.894 0 0 1-3.065-.19l-1.362-.107a105.34 105.34 0 0 1-5.95-.663l-1.27-.19C6.306 32.01.348 29.395.072 26.004c-.287-3.539 5.673-7.215 15.417-10.218l2.316-.681c1.047-.294 2.131-.58 3.25-.858l3.492-.816c.956-.21 1.933-.413 2.929-.61l2.18-.416c1.59-.292 3.227-.567 4.903-.824l2.18-.322c.92-.13 1.85-.254 2.791-.373l2.316-.279c.34-.038.68-.077 1.022-.114l2.11-.22c1.336-.13 2.686-.25 4.05-.358l.105-.008 2.793-.2c1.609-.105 3.2-.19 4.767-.254l2.656-.092c.894-.025 1.78-.043 2.656-.055l2.18-.017c4.097-.007 7.98.127 11.57.39l2.187.18c1.965.18 3.831.4 5.584.658l2.18.351c8.594 1.511 13.99 4.034 14.25 7.257.358 4.407-8.976 9.027-23.24 12.296l-1.09.245c-.693.153-1.397.302-2.111.448l-1.262.253c-2.62.514-5.374.982-8.234 1.398l-1.197.17c-.742.103-1.491.203-2.247.298l-1.498.184c-2.113.251-4.272.474-6.47.664L51 34.214c-.97.076-1.932.146-2.888.208Z" clip-rule="evenodd"/><path fill="#fff" d="M75.251 35.88V23.824H76.5V34.7h5.807v1.18h-7.056ZM67.743 36.132c-1.216 0-2.244-.266-3.082-.796-.837-.536-1.471-1.276-1.901-2.219-.43-.943-.646-2.032-.646-3.266 0-1.233.215-2.322.646-3.265.43-.944 1.064-1.68 1.901-2.21.838-.537 1.865-.805 3.082-.805 1.223 0 2.25.268 3.083.804.837.53 1.471 1.267 1.902 2.21.435.944.653 2.033.653 3.266 0 1.234-.218 2.323-.653 3.266-.43.944-1.065 1.683-1.902 2.22-.832.53-1.86.795-3.082.795Zm0-1.181c.957 0 1.755-.215 2.395-.645.64-.43 1.118-1.027 1.435-1.792.322-.77.484-1.658.484-2.663 0-1.004-.162-1.89-.484-2.654-.317-.765-.795-1.362-1.435-1.792-.64-.43-1.438-.648-2.395-.653-.956 0-1.751.215-2.385.645-.634.43-1.113 1.03-1.435 1.8-.317.765-.479 1.65-.484 2.654-.006 1.005.15 1.89.467 2.655.322.759.804 1.356 1.443 1.792.64.43 1.438.647 2.394.653ZM55.455 36.132c-1.217 0-2.244-.266-3.082-.796-.837-.536-1.471-1.276-1.901-2.219-.43-.943-.646-2.032-.646-3.266 0-1.233.215-2.322.645-3.265.43-.944 1.065-1.68 1.902-2.21.838-.537 1.865-.805 3.082-.805 1.223 0 2.25.268 3.083.804.837.53 1.471 1.267 1.901 2.21.436.944.654 2.033.654 3.266 0 1.234-.218 2.323-.654 3.266-.43.944-1.064 1.683-1.901 2.22-.833.53-1.86.795-3.083.795Zm0-1.181c.957 0 1.755-.215 2.395-.645.64-.43 1.118-1.027 1.435-1.792.322-.77.484-1.658.484-2.663 0-1.004-.162-1.89-.484-2.654-.317-.765-.796-1.362-1.435-1.792-.64-.43-1.438-.648-2.395-.653-.956 0-1.752.215-2.385.645-.634.43-1.113 1.03-1.435 1.8-.317.765-.479 1.65-.484 2.654-.006 1.005.15 1.89.467 2.655.322.759.803 1.356 1.443 1.792.64.43 1.438.647 2.394.653ZM38.88 35.88V23.824h1.249v5.434h6.758v-5.434h1.24V35.88h-1.24v-5.443H40.13v5.443H38.88ZM31.675 36.132c-1.217 0-2.244-.266-3.082-.796-.838-.536-1.472-1.276-1.902-2.219-.43-.943-.645-2.032-.645-3.266 0-1.233.215-2.322.645-3.265.43-.944 1.064-1.68 1.902-2.21.838-.537 1.865-.805 3.082-.805 1.42 0 2.581.36 3.481 1.08.9.715 1.517 1.675 1.851 2.881l-1.273.326c-.26-.954-.728-1.71-1.401-2.269-.674-.558-1.56-.837-2.658-.837-.957 0-1.752.215-2.386.645-.634.43-1.112 1.03-1.435 1.8-.317.765-.48 1.65-.492 2.654-.006 1.005.15 1.89.467 2.655.323.765.804 1.365 1.443 1.8.646.43 1.447.645 2.403.645 1.098 0 1.984-.28 2.658-.837.673-.564 1.14-1.32 1.4-2.27l1.274.327c-.334 1.206-.95 2.169-1.85 2.889-.9.714-2.061 1.072-3.482 1.072ZM20.507 36.132c-.855 0-1.625-.14-2.31-.419a4.47 4.47 0 0 1-1.69-1.206 3.935 3.935 0 0 1-.866-1.85l1.274-.21a3.1 3.1 0 0 0 1.29 1.842c.657.441 1.441.662 2.353.662.6 0 1.137-.092 1.613-.276.475-.19.849-.458 1.12-.804.272-.346.408-.757.408-1.231 0-.313-.057-.578-.17-.796a1.61 1.61 0 0 0-.45-.552 2.783 2.783 0 0 0-.611-.36c-.22-.1-.436-.182-.645-.243l-3.1-.913a5.688 5.688 0 0 1-1.035-.402 3.645 3.645 0 0 1-.832-.594 2.545 2.545 0 0 1-.544-.82 2.767 2.767 0 0 1-.195-1.073c0-.68.181-1.27.543-1.767.363-.496.858-.879 1.486-1.147s1.345-.399 2.148-.393c.815 0 1.543.142 2.182.427a4.113 4.113 0 0 1 1.597 1.222c.418.525.696 1.148.832 1.868l-1.308.234a2.898 2.898 0 0 0-.586-1.365 2.986 2.986 0 0 0-1.171-.887 3.825 3.825 0 0 0-1.554-.327c-.55 0-1.039.092-1.469.276a2.498 2.498 0 0 0-1.01.737c-.25.313-.374.67-.374 1.072 0 .408.113.734.34.98.232.245.515.438.849.578.34.14.668.253.985.343l2.394.695c.249.067.54.165.874.293.34.123.668.301.985.536.323.229.589.53.799.904.209.374.314.849.314 1.424 0 .558-.114 1.057-.34 1.498-.22.441-.535.813-.942 1.114-.402.302-.875.53-1.418.687a6.104 6.104 0 0 1-1.766.243ZM83.058 19.134V9.203h-3.855V7.076h10.02v2.127h-3.855v9.93h-2.31ZM75.368 19.134V7.076h2.309v12.058h-2.31ZM61.782 19.134V7.076h7.981v2.127h-5.672v2.579h4.653v2.127h-4.653v3.098h5.672v2.127h-7.981ZM54.36 19.384c-1.223 0-2.279-.262-3.167-.787a5.307 5.307 0 0 1-2.047-2.202c-.475-.943-.713-2.04-.713-3.29 0-1.251.238-2.348.713-3.291a5.307 5.307 0 0 1 2.047-2.203c.888-.524 1.944-.787 3.167-.787 1.403 0 2.58.344 3.532 1.03.956.687 1.63 1.616 2.02 2.788l-2.326.637c-.226-.731-.608-1.298-1.146-1.7-.538-.407-1.231-.611-2.08-.611-.776 0-1.424.17-1.945.51-.515.341-.902.821-1.163 1.44-.26.62-.39 1.349-.39 2.186 0 .838.13 1.566.39 2.186.26.62.648 1.1 1.163 1.44.521.34 1.17.51 1.945.51.849 0 1.542-.203 2.08-.61.538-.408.92-.974 1.146-1.7l2.327.636c-.391 1.172-1.065 2.102-2.021 2.789-.951.686-2.129 1.03-3.532 1.03ZM37.003 19.134 40.74 7.076h3.447l3.736 12.058h-2.377L42.217 8.499h.441l-3.277 10.635h-2.378Zm2.242-2.512v-2.127h6.453v2.127h-6.453ZM27.654 19.134V7.076h5.162c.119 0 .277.005.475.016.204.006.386.023.544.05.73.112 1.327.35 1.791.712.47.363.816.821 1.036 1.374.221.547.331 1.158.331 1.834 0 .675-.113 1.289-.34 1.842a3.217 3.217 0 0 1-1.035 1.364c-.464.363-1.059.6-1.783.712a9.24 9.24 0 0 1-1.019.067h-2.853v4.087h-2.31Zm2.31-6.214h2.75c.12 0 .25-.005.39-.016a2.03 2.03 0 0 0 .391-.067c.312-.084.552-.224.722-.419.17-.201.286-.421.348-.661.068-.246.102-.478.102-.695a2.52 2.52 0 0 0-.102-.687 1.592 1.592 0 0 0-.348-.662c-.17-.2-.41-.343-.722-.427a2.028 2.028 0 0 0-.39-.067 4.998 4.998 0 0 0-.39-.016h-2.752v3.717ZM20.88 19.384c-.905 0-1.723-.156-2.454-.468a4.65 4.65 0 0 1-1.791-1.357c-.464-.592-.759-1.295-.883-2.11l2.411-.352c.17.693.52 1.226 1.053 1.6a3.082 3.082 0 0 0 1.817.56c.38 0 .747-.058 1.104-.175a2.15 2.15 0 0 0 .874-.52c.232-.228.348-.51.348-.845 0-.123-.02-.24-.06-.352a.884.884 0 0 0-.177-.326 1.322 1.322 0 0 0-.366-.285 2.785 2.785 0 0 0-.585-.243l-3.176-.921a9.401 9.401 0 0 1-.832-.285 3.686 3.686 0 0 1-.908-.527 2.76 2.76 0 0 1-.739-.905c-.192-.38-.289-.856-.289-1.431 0-.81.207-1.483.62-2.018.413-.536.965-.935 1.656-1.198.69-.262 1.454-.39 2.292-.385.844.011 1.596.154 2.259.427a4.313 4.313 0 0 1 1.664 1.197c.447.52.77 1.156.968 1.91l-2.496.418c-.091-.39-.258-.72-.501-.988a2.397 2.397 0 0 0-.875-.611 2.938 2.938 0 0 0-1.053-.226 2.847 2.847 0 0 0-1.027.15 1.94 1.94 0 0 0-.781.47 1.028 1.028 0 0 0-.297.736c0 .263.082.478.246.645.164.162.37.293.62.394.249.1.503.184.764.25l2.122.57c.317.084.668.196 1.053.335a4.5 4.5 0 0 1 1.104.57c.357.24.648.558.875.954.232.397.348.899.348 1.508 0 .647-.139 1.214-.416 1.7-.272.48-.64.878-1.104 1.197-.464.312-.99.547-1.58.703a6.953 6.953 0 0 1-1.808.235ZM84.914 2.903c0 1.285-1.056 2.326-2.359 2.326-1.302 0-2.358-1.041-2.358-2.326 0-1.284 1.056-2.326 2.358-2.326 1.303 0 2.359 1.042 2.359 2.326ZM19.145 40.783c0 2.533-2.081 4.586-4.65 4.586-2.567 0-4.649-2.053-4.649-4.586 0-2.532 2.082-4.585 4.65-4.585 2.568 0 4.65 2.053 4.65 4.585ZM97.178 23.505c0 .917-.754 1.661-1.685 1.661-.93 0-1.684-.744-1.684-1.661 0-.918.754-1.662 1.684-1.662.93 0 1.685.744 1.685 1.662Z"/><path fill="#D93D30" fill-rule="evenodd" d="m16.099 32.879 1.277.199c1.835.26 3.769.441 5.84.616h.001l1.344.106h.001a135.036 135.036 0 0 0 3.024.187l1.882.084h.002c1.4.053 2.835.088 4.301.104l1.817.01c1.105.001 2.226-.009 3.362-.03l1.144-.023c2.216-.054 4.484-.148 6.794-.284l1.176-.073.035-.002c.944-.062 1.895-.13 2.852-.206l1.588-.131a201.71 201.71 0 0 0 6.39-.656h.001l1.48-.181c.747-.095 1.486-.193 2.219-.295l1.182-.168c2.825-.41 5.543-.873 8.13-1.38l1.246-.25h.001c.705-.144 1.4-.292 2.083-.442l1.076-.242c.248-.057.495-.114.74-.172l.156.647-.744.172h-.001l-1.078.243h-.002c-.687.152-1.385.3-2.094.445l-1.25.25h-.001c-2.599.51-5.328.975-8.163 1.387h-.002l-1.184.168c-.736.102-1.48.2-2.228.296h-.002l-1.482.182h-.001c-2.094.249-4.234.47-6.413.658h-.001l-1.59.132h-.002c-.96.076-1.914.144-2.862.206l-.035.002h-.001l-1.178.073a197.29 197.29 0 0 1-6.818.285h-.001l-1.146.024h-.001c-1.14.021-2.266.031-3.376.03h-.001l-1.82-.01h-.002a161.006 161.006 0 0 1-4.322-.105l-1.89-.084a136.142 136.142 0 0 1-3.04-.188h-.003l-1.35-.107c-2.074-.175-4.025-.357-5.88-.62h-.003l-1.283-.2a88.028 88.028 0 0 1-1.624-.268l.12-.654c.488.087 1.096.184 1.61.265Z" clip-rule="evenodd"/><path fill="#D93D30" fill-rule="evenodd" d="M76.824 23.908c.36-.17.76-.36.999-.478l.3.595c-.241.12-.652.314-1.017.487l-.536.255-1.08.512c-.924.435-1.87.867-2.837 1.296h-.001l-1.01.446h-.002a176.906 176.906 0 0 1-8.17 3.316l-1.146.43c-.426.157-.853.314-1.283.47h-.002l-1.28.46a203.67 203.67 0 0 1-7.223 2.412h-.001l-1.146.355c-2.053.63-4.08 1.215-6.076 1.759l-.18-.64a199.19 199.19 0 0 0 6.055-1.753l1.144-.355a203.062 203.062 0 0 0 7.198-2.403l1.278-.459a193.37 193.37 0 0 0 1.278-.468l1.144-.428a176.343 176.343 0 0 0 8.138-3.303l1.008-.445c.963-.427 1.904-.857 2.823-1.289h.001l1.076-.51v-.001l.548-.26Z" clip-rule="evenodd"/></svg>