<svg width="25" height="25" viewBox="0 0 25 25" fill="none" xmlns="http://www.w3.org/2000/svg">
<path d="M16.8 4.5498H8.30005C6.22898 4.5498 4.55005 6.22874 4.55005 8.2998V16.7998C4.55005 18.8709 6.22898 20.5498 8.30005 20.5498H16.8C18.8711 20.5498 20.55 18.8709 20.55 16.7998V8.2998C20.55 6.22874 18.8711 4.5498 16.8 4.5498Z" fill="#330000"/>
<path d="M12.2832 14.0706H9.80324L9.29655 15.6373C9.28324 15.6973 9.22993 15.7373 9.16993 15.7306H7.91655C7.84324 15.7306 7.82324 15.6906 7.84324 15.6106L9.98993 9.43058C10.0099 9.36395 10.0299 9.29058 10.0566 9.21058C10.0832 9.07058 10.0966 8.92395 10.0966 8.77727C10.0899 8.74395 10.1166 8.71058 10.1499 8.70395H11.8766C11.9299 8.70395 11.9566 8.72395 11.9632 8.75727L14.3966 15.624C14.4166 15.6973 14.3966 15.7306 14.3299 15.7306H12.9366C12.8899 15.7373 12.8432 15.704 12.8299 15.6573L12.2832 14.0706ZM10.1899 12.7173H11.8832C11.8432 12.5773 11.7899 12.4106 11.7299 12.2373C11.6699 12.0573 11.6099 11.864 11.5499 11.664C11.4832 11.4573 11.4232 11.2573 11.3566 11.0506C11.2899 10.844 11.2299 10.6506 11.1766 10.4573C11.1232 10.2706 11.0766 10.0973 11.0299 9.93727H11.0166C10.9566 10.224 10.8832 10.5106 10.7899 10.7973C10.6899 11.1173 10.5899 11.4506 10.4832 11.784C10.3971 12.0986 10.2993 12.4099 10.1899 12.7173ZM15.8832 9.87058C15.6632 9.87727 15.4499 9.79058 15.2899 9.63727C15.1366 9.47058 15.0566 9.25058 15.0632 9.02395C15.0566 8.79727 15.1432 8.58395 15.3032 8.43058C15.4632 8.27727 15.6766 8.19727 15.8966 8.19727C16.1566 8.19727 16.3566 8.27727 16.5032 8.43058C16.651 8.59221 16.7299 8.80507 16.7232 9.02395C16.7299 9.25058 16.6499 9.47058 16.4899 9.63727C16.3366 9.79727 16.1099 9.88395 15.8832 9.87058ZM15.1366 15.6573V10.524C15.1366 10.4573 15.1632 10.4306 15.2232 10.4306H16.5432C16.6032 10.4306 16.6299 10.464 16.6299 10.524V15.6573C16.6299 15.7306 16.6032 15.764 16.5432 15.764H15.2366C15.1699 15.764 15.1366 15.724 15.1366 15.6573Z" fill="#FF9A00"/>
</svg>
