<svg width="104" height="48" viewBox="0 0 104 48" fill="none" xmlns="http://www.w3.org/2000/svg">
<path fill-rule="evenodd" clip-rule="evenodd" d="M56.0344 35.7033C55.5581 35.8575 55.0828 36.0097 54.6086 36.1596L53.403 36.5371C27.1157 44.681 4.57099 46.1041 2.44172 39.5954C0.806813 34.5979 11.6679 26.3306 28.5996 18.7711L30.8509 17.7856C32.234 17.192 33.6534 16.6038 35.106 16.0232L37.1627 15.2148C38.2798 14.783 39.415 14.356 40.5667 13.9346L47.0203 11.6924C47.3682 11.5778 47.7173 11.4637 48.0675 11.3503C49.2141 10.9789 50.3548 10.62 51.4882 10.2737L59.2892 8.05525C81.7384 2.1544 99.7672 1.67175 101.66 7.45816C103.15 12.0129 94.2606 19.2836 79.8555 26.2591L78.7208 26.8025C77.751 27.262 76.7577 27.7198 75.7423 28.1751L74.6785 28.6476C71.9599 29.8438 69.091 31.0205 66.0973 32.1619L64.8917 32.6171C64.4452 32.7841 63.996 32.9503 63.5443 33.1156L62.1968 33.6033C60.1882 34.3225 58.1317 35.0239 56.0344 35.7033ZM61.9584 32.9476C59.957 33.6642 57.9076 34.3632 55.8175 35.0402C55.3431 35.1938 54.8697 35.3454 54.3974 35.4947C54.397 35.4949 54.3967 35.495 54.3963 35.4951L53.1946 35.8712C53.1943 35.8713 53.194 35.8714 53.1937 35.8715C40.0865 39.9321 27.9362 42.3092 18.8202 42.865C14.2566 43.1432 10.4942 42.9622 7.76507 42.3295C4.98675 41.6854 3.51849 40.634 3.10811 39.3796C2.7946 38.4213 3.04337 37.1958 4.044 35.679C5.0385 34.1716 6.70715 32.4872 8.99254 30.6913C13.5568 27.1044 20.4469 23.1755 28.8842 19.4084C28.885 19.408 28.8857 19.4077 28.8865 19.4073L31.1285 18.4259C31.1293 18.4256 31.13 18.4253 31.1308 18.4249C32.507 17.8342 33.9196 17.2489 35.3654 16.671C35.366 16.6708 35.3666 16.6705 35.3672 16.6703L37.4164 15.8648C37.417 15.8646 37.4176 15.8644 37.4182 15.8641C38.5291 15.4348 39.6578 15.0102 40.8032 14.5911L47.246 12.3526C47.591 12.239 47.9371 12.1259 48.2844 12.0134C49.4251 11.6439 50.5599 11.2868 51.6873 10.9423L59.475 8.72767C70.6646 5.78687 80.7225 4.2048 88.1958 4.0712C91.9382 4.0043 94.9903 4.30175 97.2 4.94942C99.4379 5.6054 100.63 6.56241 100.994 7.67401C101.279 8.54733 101.099 9.64087 100.304 10.9819C99.5102 12.32 98.1525 13.816 96.2635 15.4204C92.4903 18.6254 86.7257 22.1567 79.5499 25.6316C79.5495 25.6318 79.5492 25.6319 79.5489 25.6321L78.4196 26.1729C78.4192 26.1731 78.4189 26.1733 78.4185 26.1734C77.4539 26.6304 76.4657 27.0858 75.4553 27.5388C75.455 27.539 75.4547 27.5391 75.4543 27.5393L74.3951 28.0098C74.3946 28.01 74.3942 28.0102 74.3938 28.0104C71.6872 29.2013 68.8301 30.3732 65.8479 31.5102C65.8475 31.5104 65.847 31.5106 65.8466 31.5108L64.6452 31.9644C64.6449 31.9645 64.6445 31.9646 64.6442 31.9648C64.2001 32.1308 63.7534 32.2961 63.3041 32.4605C63.3035 32.4607 63.303 32.4609 63.3024 32.4611L61.9596 32.9472C61.9592 32.9473 61.9588 32.9474 61.9584 32.9476Z" fill="#D93D30"/>
<path fill-rule="evenodd" clip-rule="evenodd" d="M49.99 35.7887L48.7193 35.8681C48.719 35.8682 48.7188 35.8682 48.7185 35.8682C46.2949 36.0124 43.9153 36.112 41.5915 36.1689C41.591 36.1689 41.5906 36.1689 41.5901 36.1689L40.3903 36.1946C40.39 36.1946 40.3896 36.1946 40.3892 36.1946C39.1982 36.2164 38.0226 36.2269 36.8642 36.2263C36.8635 36.2263 36.8628 36.2263 36.8621 36.2263L34.9572 36.2153C34.9566 36.2153 34.9559 36.2153 34.9553 36.2152C33.4178 36.1981 31.9132 36.161 30.4455 36.1048C30.4447 36.1047 30.444 36.1047 30.4432 36.1047L28.4691 36.0163C28.4683 36.0163 28.4676 36.0162 28.4668 36.0162C27.3886 35.9609 26.3323 35.8948 25.2996 35.8184C25.299 35.8183 25.2983 35.8183 25.2977 35.8182L23.8888 35.7063C23.8882 35.7062 23.8875 35.7061 23.8869 35.7061C21.7211 35.5218 19.6682 35.2905 17.7445 35.0149C17.7436 35.0148 17.7427 35.0146 17.7417 35.0145L16.4316 34.8168C16.4307 34.8167 16.4298 34.8165 16.429 34.8164C11.5782 34.0459 7.66318 32.9855 4.94437 31.7016C2.17104 30.392 0.883483 28.9696 0.773089 27.5963C0.71573 26.8828 0.963236 26.1095 1.59116 25.2695C2.22269 24.4248 3.21445 23.5483 4.56515 22.6626C7.26531 20.8921 11.2767 19.1637 16.3134 17.5971L18.7129 16.885C19.792 16.5794 20.9097 16.2815 22.0635 15.9922L25.6859 15.1386C26.6729 14.9202 27.6814 14.708 28.7101 14.5025C28.711 14.5024 28.7118 14.5022 28.7126 14.502L30.9694 14.0681C30.9702 14.0679 30.971 14.0678 30.9718 14.0676C32.6188 13.7629 34.3122 13.4753 36.0467 13.2065C36.0474 13.2064 36.0481 13.2063 36.0488 13.2062L38.3069 12.8704C38.3076 12.8703 38.3083 12.8702 38.309 12.8701C39.2612 12.7343 40.2246 12.6042 41.1984 12.4801C41.1991 12.4801 41.1998 12.48 41.2005 12.4799L43.6004 12.1887C43.6011 12.1886 43.6018 12.1885 43.6025 12.1884C43.9529 12.148 44.3046 12.1084 44.6574 12.0695C44.658 12.0695 44.6586 12.0694 44.6592 12.0693L46.8476 11.8401C46.8482 11.84 46.8488 11.84 46.8494 11.8399C48.2323 11.7024 49.6317 11.577 51.0456 11.4645C51.0456 11.4644 51.0457 11.4644 51.0457 11.4644L51.1493 11.4562L51.1542 11.4558L54.0485 11.2466C54.0493 11.2465 54.0501 11.2465 54.0509 11.2464C55.7173 11.1373 57.3641 11.0492 58.9875 10.9814C58.9883 10.9814 58.9891 10.9814 58.9899 10.9813L61.7426 10.8852C61.7434 10.8852 61.7442 10.8852 61.745 10.8852C62.6698 10.8593 63.5861 10.8401 64.4929 10.8275C64.4936 10.8275 64.4943 10.8275 64.495 10.8275L66.7531 10.8098C66.7538 10.8098 66.7545 10.8098 66.7552 10.8098C70.999 10.8024 75.0165 10.9426 78.7292 11.2174C78.7302 11.2175 78.7313 11.2176 78.7323 11.2177L80.9948 11.4053C80.9959 11.4054 80.997 11.4055 80.998 11.4056C83.027 11.5924 84.9521 11.8215 86.7591 12.0902C86.7607 12.0904 86.7622 12.0907 86.7638 12.0909L89.011 12.4564C89.0126 12.4567 89.0143 12.457 89.0159 12.4572C93.4522 13.2444 97.0122 14.2872 99.4783 15.5257C101.989 16.7867 103.152 18.1369 103.256 19.4395C103.328 20.3261 102.926 21.312 101.91 22.3922C100.895 23.4713 99.328 24.5752 97.2457 25.6663C93.086 27.8458 87.0156 29.8987 79.6267 31.607C79.6264 31.607 79.6261 31.6071 79.6258 31.6072L78.4983 31.8629C78.4979 31.863 78.4975 31.8631 78.4971 31.8632C77.7809 32.0225 77.0532 32.1785 76.3146 32.3311C76.3141 32.3312 76.3135 32.3313 76.313 32.3315L75.0062 32.5956C75.0056 32.5957 75.005 32.5958 75.0044 32.5959C72.2919 33.132 69.4416 33.6216 66.4787 34.0561C66.4783 34.0562 66.4779 34.0562 66.4775 34.0563L65.2376 34.234C65.2372 34.2341 65.2368 34.2341 65.2365 34.2342C64.468 34.3417 63.6923 34.4456 62.9099 34.5456C62.9095 34.5457 62.909 34.5458 62.9085 34.5458L61.3557 34.7382C61.3553 34.7382 61.3549 34.7383 61.3545 34.7383C59.1664 35.0008 56.9289 35.2331 54.6511 35.4322C54.6506 35.4323 54.65 35.4323 54.6495 35.4323L52.9836 35.5714C52.9831 35.5715 52.9826 35.5715 52.982 35.5716C51.9785 35.6514 50.9811 35.7238 49.9906 35.7887C49.9904 35.7887 49.9902 35.7887 49.99 35.7887ZM50.036 36.4845L48.7611 36.5642C46.3286 36.709 43.9401 36.8089 41.6073 36.866L40.4032 36.8918C39.2067 36.9137 38.0257 36.9242 36.8617 36.9237L34.9494 36.9126C33.4042 36.8953 31.8919 36.8581 30.4163 36.8015L28.433 36.7127C27.3482 36.6571 26.2852 36.5906 25.2457 36.5137L23.8291 36.401C21.6495 36.2157 19.5815 35.9826 17.6418 35.7047L16.3212 35.5054C6.55796 33.955 0.360541 31.2101 0.0745118 27.6519C-0.223981 23.9388 5.97496 20.0816 16.1087 16.9301L18.5169 16.2155C19.606 15.907 20.7336 15.6065 21.8971 15.3148L25.529 14.459C26.5232 14.2389 27.5389 14.0252 28.5747 13.8183L30.8412 13.3825C32.4966 13.0762 34.1983 12.7872 35.941 12.5172L38.2075 12.1801C39.1646 12.0436 40.1328 11.9129 41.1115 11.7882L43.5197 11.496C43.8727 11.4553 44.2268 11.4154 44.5822 11.3762L46.7779 11.1462C48.1661 11.0081 49.5707 10.8823 50.9899 10.7693L51.0985 10.7607L54.0025 10.5507C55.676 10.4412 57.33 10.3526 58.9606 10.2846L61.7229 10.1882C62.6525 10.1621 63.5736 10.1429 64.4853 10.1303L66.7518 10.1125C71.0136 10.105 75.0508 10.2458 78.7843 10.5223L81.0594 10.7109C83.103 10.8991 85.0438 11.1299 86.8674 11.4012L89.134 11.7699C98.0715 13.3551 103.683 16.0023 103.955 19.3839C104.327 24.0086 94.6195 28.8567 79.7844 32.2864L78.6512 32.5434C77.9305 32.7038 77.1984 32.8607 76.4555 33.0142L75.1427 33.2795C72.4173 33.8182 69.5546 34.3099 66.5797 34.7462L65.3352 34.9245C64.5631 35.0326 63.7839 35.137 62.9978 35.2375L61.4396 35.4305C59.2429 35.694 56.997 35.9272 54.7108 36.127L53.0395 36.2665C52.032 36.3467 51.0305 36.4194 50.036 36.4845Z" fill="#D93D30"/>
<path d="M78.2615 38.0151V25.3628H79.5595V36.7763H85.5994V38.0151H78.2615Z" fill="white"/>
<path d="M70.4532 38.2786C69.1875 38.2786 68.1191 38.0004 67.2478 37.4439C66.3766 36.8816 65.7172 36.1055 65.2698 35.1156C64.8225 34.1256 64.5988 32.9834 64.5988 31.6889C64.5988 30.3944 64.8225 29.2521 65.2698 28.2622C65.7172 27.2723 66.3766 26.4991 67.2478 25.9426C68.1191 25.3803 69.1875 25.0991 70.4532 25.0991C71.7247 25.0991 72.7932 25.3803 73.6585 25.9426C74.5298 26.4991 75.1891 27.2723 75.6365 28.2622C76.0898 29.2521 76.3164 30.3944 76.3164 31.6889C76.3164 32.9834 76.0898 34.1256 75.6365 35.1156C75.1891 36.1055 74.5298 36.8816 73.6585 37.4439C72.7932 38.0004 71.7247 38.2786 70.4532 38.2786ZM70.4532 37.0398C71.448 37.0398 72.2781 36.8143 72.9433 36.3632C73.6085 35.9122 74.1059 35.2854 74.4356 34.4829C74.7711 33.6746 74.9389 32.7432 74.9389 31.6889C74.9389 30.6345 74.7711 29.7061 74.4356 28.9036C74.1059 28.1011 73.6085 27.4744 72.9433 27.0233C72.2781 26.5723 71.448 26.3439 70.4532 26.338C69.4583 26.338 68.6312 26.5635 67.9719 27.0145C67.3126 27.4656 66.8151 28.0953 66.4796 28.9036C66.1499 29.7061 65.9822 30.6345 65.9763 31.6889C65.9704 32.7432 66.1323 33.6717 66.4619 34.4742C66.7975 35.2708 67.2978 35.8975 67.9631 36.3544C68.6283 36.8055 69.4583 37.0339 70.4532 37.0398Z" fill="white"/>
<path d="M57.6736 38.2786C56.408 38.2786 55.3395 38.0004 54.4683 37.4439C53.597 36.8816 52.9377 36.1055 52.4903 35.1156C52.0429 34.1256 51.8192 32.9834 51.8192 31.6889C51.8192 30.3944 52.0429 29.2521 52.4903 28.2622C52.9377 27.2723 53.597 26.4991 54.4683 25.9426C55.3395 25.3803 56.408 25.0991 57.6736 25.0991C58.9452 25.0991 60.0136 25.3803 60.879 25.9426C61.7502 26.4991 62.4096 27.2723 62.8569 28.2622C63.3102 29.2521 63.5369 30.3944 63.5369 31.6889C63.5369 32.9834 63.3102 34.1256 62.8569 35.1156C62.4096 36.1055 61.7502 36.8816 60.879 37.4439C60.0136 38.0004 58.9452 38.2786 57.6736 38.2786ZM57.6736 37.0398C58.6685 37.0398 59.4985 36.8143 60.1637 36.3632C60.8289 35.9122 61.3264 35.2854 61.656 34.4829C61.9916 33.6746 62.1594 32.7432 62.1594 31.6889C62.1594 30.6345 61.9916 29.7061 61.656 28.9036C61.3264 28.1011 60.8289 27.4744 60.1637 27.0233C59.4985 26.5723 58.6685 26.3439 57.6736 26.338C56.6788 26.338 55.8517 26.5635 55.1923 27.0145C54.533 27.4656 54.0356 28.0953 53.7 28.9036C53.3704 29.7061 53.2026 30.6345 53.1967 31.6889C53.1908 32.7432 53.3527 33.6717 53.6824 34.4742C54.0179 35.2708 54.5183 35.8975 55.1835 36.3544C55.8487 36.8055 56.6788 37.0339 57.6736 37.0398Z" fill="white"/>
<path d="M40.4358 38.0151V25.3628H41.7338V31.0651H48.7627V25.3628H50.0519V38.0151H48.7627V32.304H41.7338V38.0151H40.4358Z" fill="white"/>
<path d="M32.9422 38.2786C31.6765 38.2786 30.6081 38.0004 29.7368 37.4439C28.8656 36.8816 28.2063 36.1055 27.7589 35.1156C27.3115 34.1256 27.0878 32.9834 27.0878 31.6889C27.0878 30.3944 27.3115 29.2521 27.7589 28.2622C28.2063 27.2723 28.8656 26.4991 29.7368 25.9426C30.6081 25.3803 31.6765 25.0991 32.9422 25.0991C34.4198 25.0991 35.6266 25.4769 36.5626 26.2326C37.4986 26.9823 38.1402 27.9898 38.4875 29.2551L37.163 29.5977C36.8922 28.5961 36.4066 27.8024 35.706 27.2166C35.0055 26.6309 34.0842 26.338 32.9422 26.338C31.9473 26.338 31.1202 26.5635 30.4609 27.0145C29.8016 27.4656 29.3041 28.0953 28.9686 28.9036C28.6389 29.7061 28.4682 30.6345 28.4564 31.6889C28.4506 32.7432 28.6124 33.6717 28.9421 34.4742C29.2777 35.2766 29.778 35.9063 30.4432 36.3632C31.1143 36.8143 31.9473 37.0398 32.9422 37.0398C34.0842 37.0398 35.0055 36.7469 35.706 36.1611C36.4066 35.5695 36.8922 34.7758 37.163 33.78L38.4875 34.1227C38.1402 35.3879 37.4986 36.3984 36.5626 37.154C35.6266 37.9038 34.4198 38.2786 32.9422 38.2786Z" fill="white"/>
<path d="M21.3268 38.2788C20.4379 38.2788 19.6373 38.1324 18.925 37.8395C18.2186 37.5408 17.6328 37.119 17.1678 36.5743C16.7086 36.0295 16.4084 35.3823 16.2671 34.6325L17.5916 34.4128C17.8035 35.2329 18.2509 35.8772 18.9338 36.3458C19.6167 36.8086 20.432 37.04 21.3798 37.04C22.0038 37.04 22.563 36.9433 23.0575 36.75C23.552 36.5508 23.9405 36.2697 24.2231 35.9065C24.5057 35.5433 24.6469 35.1128 24.6469 34.6149C24.6469 34.2869 24.5881 34.0087 24.4703 33.7802C24.3526 33.5459 24.1966 33.3526 24.0023 33.2003C23.8081 33.048 23.5961 32.9221 23.3666 32.8225C23.137 32.7171 22.9133 32.6321 22.6955 32.5677L19.4724 31.61C19.0839 31.4987 18.7248 31.3581 18.3952 31.1882C18.0655 31.0125 17.7771 30.8046 17.5298 30.5644C17.2884 30.3184 17.1001 30.0314 16.9647 29.7034C16.8293 29.3753 16.7616 29.0004 16.7616 28.5787C16.7616 27.8641 16.95 27.2461 17.3267 26.7248C17.7035 26.2035 18.2186 25.8022 18.872 25.521C19.5254 25.2399 20.2701 25.1022 21.106 25.1081C21.9537 25.1081 22.7102 25.2575 23.3754 25.5562C24.0465 25.8549 24.5998 26.2825 25.0355 26.839C25.4711 27.3896 25.7595 28.0427 25.9008 28.7984L24.541 29.0444C24.4527 28.4938 24.2496 28.0164 23.9317 27.6122C23.6138 27.208 23.2076 26.8976 22.7131 26.6808C22.2245 26.4583 21.6859 26.344 21.0972 26.3382C20.5262 26.3382 20.017 26.4348 19.5696 26.6281C19.1281 26.8156 18.7778 27.0733 18.5188 27.4013C18.2598 27.7294 18.1303 28.1042 18.1303 28.526C18.1303 28.9536 18.248 29.2963 18.4835 29.554C18.7248 29.8117 19.0192 30.0138 19.3665 30.1602C19.7197 30.3067 20.0611 30.4268 20.3908 30.5205L22.8809 31.2497C23.1399 31.32 23.4431 31.4225 23.7904 31.5573C24.1436 31.6861 24.4851 31.8736 24.8147 32.1196C25.1503 32.3598 25.4269 32.6761 25.6447 33.0685C25.8626 33.461 25.9715 33.9589 25.9715 34.5622C25.9715 35.148 25.8537 35.6722 25.6183 36.135C25.3887 36.5977 25.062 36.9872 24.6381 37.3035C24.2201 37.6199 23.7286 37.86 23.1635 38.024C22.6042 38.1939 21.992 38.2788 21.3268 38.2788Z" fill="white"/>
<path d="M86.3805 20.4424V10.0218H82.3716V7.79004H92.7912V10.0218H88.7823V20.4424H86.3805Z" fill="white"/>
<path d="M78.3822 20.4424V7.79004H80.784V20.4424H78.3822Z" fill="white"/>
<path d="M64.2532 20.4424V7.79004H72.5536V10.0218H66.655V12.728H71.4939V14.9597H66.655V18.2107H72.5536V20.4424H64.2532Z" fill="white"/>
<path d="M56.534 20.7059C55.2624 20.7059 54.1645 20.4306 53.2403 19.88C52.322 19.3294 51.6126 18.5591 51.1122 17.5692C50.6177 16.5792 50.3705 15.4282 50.3705 14.1161C50.3705 12.804 50.6177 11.653 51.1122 10.6631C51.6126 9.67317 52.322 8.9029 53.2403 8.35228C54.1645 7.80167 55.2624 7.52637 56.534 7.52637C57.9939 7.52637 59.2183 7.88661 60.2073 8.60709C61.2022 9.32757 61.9027 10.3029 62.3089 11.5329L59.8894 12.2007C59.654 11.4334 59.2566 10.8388 58.6974 10.4171C58.1381 9.98947 57.417 9.77567 56.534 9.77567C55.7275 9.77567 55.0534 9.95433 54.5118 10.3116C53.9761 10.669 53.5729 11.1727 53.3021 11.8229C53.0313 12.4731 52.8959 13.2375 52.8959 14.1161C52.8959 14.9948 53.0313 15.7592 53.3021 16.4094C53.5729 17.0596 53.9761 17.5633 54.5118 17.9206C55.0534 18.2779 55.7275 18.4566 56.534 18.4566C57.417 18.4566 58.1381 18.2428 58.6974 17.8152C59.2566 17.3876 59.654 16.793 59.8894 16.0316L62.3089 16.6993C61.9027 17.9294 61.2022 18.9047 60.2073 19.6252C59.2183 20.3457 57.9939 20.7059 56.534 20.7059Z" fill="white"/>
<path d="M38.4835 20.4424L42.3688 7.79004H45.9539L49.8391 20.4424H47.3667L43.9053 9.28372H44.3644L40.956 20.4424H38.4835ZM40.8147 17.8065V15.5747H47.5256V17.8065H40.8147Z" fill="white"/>
<path d="M28.76 20.4424V7.79004H34.1288C34.2524 7.79004 34.4172 7.7959 34.6233 7.80761C34.8352 7.81347 35.0236 7.83104 35.1884 7.86033C35.9478 7.97748 36.5688 8.22643 37.0516 8.60717C37.5402 8.98791 37.8993 9.46823 38.1288 10.0481C38.3584 10.6222 38.4732 11.2636 38.4732 11.9723C38.4732 12.6811 38.3555 13.3254 38.12 13.9053C37.8904 14.4794 37.5313 14.9568 37.0427 15.3375C36.56 15.7183 35.9419 15.9672 35.1884 16.0844C35.0236 16.1078 34.8352 16.1254 34.6233 16.1371C34.4113 16.1488 34.2465 16.1546 34.1288 16.1546H31.1618V20.4424H28.76ZM31.1618 13.9229H34.0228C34.1464 13.9229 34.2818 13.9171 34.429 13.9053C34.5762 13.8936 34.7116 13.8702 34.8352 13.835C35.159 13.7472 35.4091 13.6007 35.5857 13.3957C35.7623 13.1849 35.883 12.9535 35.9478 12.7016C36.0184 12.4439 36.0537 12.2008 36.0537 11.9723C36.0537 11.7439 36.0184 11.5037 35.9478 11.2519C35.883 10.9941 35.7623 10.7628 35.5857 10.5577C35.4091 10.3469 35.159 10.1975 34.8352 10.1096C34.7116 10.0745 34.5762 10.0511 34.429 10.0393C34.2818 10.0276 34.1464 10.0218 34.0228 10.0218H31.1618V13.9229Z" fill="white"/>
<path d="M21.7153 20.7061C20.7734 20.7061 19.9227 20.5421 19.1633 20.214C18.4098 19.8802 17.7888 19.4057 17.3002 18.7907C16.8175 18.1698 16.5113 17.4317 16.3818 16.5765L18.8896 16.2075C19.0662 16.9338 19.4312 17.4932 19.9846 17.8857C20.5379 18.2781 21.1678 18.4743 21.8742 18.4743C22.2686 18.4743 22.6513 18.4128 23.0221 18.2898C23.393 18.1668 23.6962 17.9852 23.9316 17.7451C24.173 17.5049 24.2937 17.2091 24.2937 16.8577C24.2937 16.7288 24.2731 16.6058 24.2319 16.4886C24.1966 16.3656 24.1347 16.2514 24.0464 16.146C23.9581 16.0405 23.8316 15.941 23.6667 15.8472C23.5078 15.7535 23.3047 15.6686 23.0575 15.5924L19.755 14.6259C19.5077 14.5556 19.2193 14.4561 18.8896 14.3272C18.5658 14.1983 18.2509 14.0138 17.9448 13.7737C17.6387 13.5335 17.3826 13.2172 17.1766 12.8247C16.9764 12.4264 16.8763 11.9256 16.8763 11.3223C16.8763 10.4729 17.0912 9.76707 17.5209 9.20475C17.9507 8.64242 18.5246 8.22361 19.2428 7.9483C19.961 7.67299 20.7557 7.53827 21.627 7.54413C22.5041 7.55584 23.287 7.70521 23.9758 7.99223C24.6646 8.27925 25.2415 8.69807 25.7065 9.24868C26.1716 9.79343 26.5071 10.4612 26.7132 11.252L24.1171 11.6913C24.0229 11.2813 23.8492 10.9357 23.5961 10.6545C23.343 10.3733 23.0398 10.1595 22.6866 10.0131C22.3393 9.86665 21.9743 9.78758 21.5916 9.77586C21.2149 9.76415 20.8587 9.81686 20.5232 9.93402C20.1935 10.0453 19.9227 10.2093 19.7108 10.4261C19.5048 10.6428 19.4018 10.9005 19.4018 11.1993C19.4018 11.4746 19.4871 11.7001 19.6578 11.8758C19.8286 12.0457 20.0434 12.1833 20.3024 12.2888C20.5615 12.3942 20.8264 12.4821 21.0972 12.5523L23.3047 13.1498C23.6344 13.2377 23.9993 13.3548 24.3996 13.5013C24.7999 13.6419 25.1826 13.841 25.5476 14.0987C25.9184 14.3506 26.2216 14.6845 26.4571 15.1004C26.6984 15.5163 26.8191 16.0435 26.8191 16.6819C26.8191 17.3614 26.6749 17.956 26.3864 18.4656C26.1039 18.9693 25.7212 19.3881 25.2385 19.722C24.7558 20.05 24.2083 20.2961 23.5961 20.4601C22.9898 20.6241 22.3628 20.7061 21.7153 20.7061Z" fill="white"/>
<path d="M88.3103 3.41184C88.3103 4.75978 87.2121 5.8525 85.8575 5.8525C84.5028 5.8525 83.4047 4.75978 83.4047 3.41184C83.4047 2.06391 84.5028 0.971191 85.8575 0.971191C87.2121 0.971191 88.3103 2.06391 88.3103 3.41184Z" fill="white"/>
<path d="M19.9114 43.1597C19.9114 45.8171 17.7464 47.9713 15.0758 47.9713C12.4052 47.9713 10.2402 45.8171 10.2402 43.1597C10.2402 40.5024 12.4052 38.3481 15.0758 38.3481C17.7464 38.3481 19.9114 40.5024 19.9114 43.1597Z" fill="white"/>
<path d="M101.065 25.0295C101.065 25.9923 100.281 26.7728 99.3129 26.7728C98.3453 26.7728 97.5609 25.9923 97.5609 25.0295C97.5609 24.0666 98.3453 23.2861 99.3129 23.2861C100.281 23.2861 101.065 24.0666 101.065 25.0295Z" fill="white"/>
<path fill-rule="evenodd" clip-rule="evenodd" d="M16.7425 34.866C16.7426 34.866 16.7427 34.8661 16.7428 34.8661L18.0714 35.0748C19.979 35.3481 21.9906 35.5381 24.145 35.7214C24.1453 35.7214 24.1456 35.7214 24.146 35.7214L25.5437 35.8326C25.5441 35.8326 25.5444 35.8326 25.5447 35.8326C26.5698 35.9085 27.6182 35.974 28.6883 36.029C28.6887 36.029 28.689 36.029 28.6894 36.029L30.6471 36.1167C30.6475 36.1167 30.6479 36.1167 30.6483 36.1167C32.1044 36.1725 33.5969 36.2093 35.1218 36.2263C35.1221 36.2263 35.1224 36.2263 35.1228 36.2263L37.0112 36.2373C37.0115 36.2373 37.0118 36.2373 37.0121 36.2373C38.161 36.2378 39.3269 36.2274 40.508 36.2058C40.5082 36.2058 40.5084 36.2058 40.5086 36.2058L41.6978 36.1804C41.698 36.1804 41.6982 36.1803 41.6984 36.1803C44.002 36.1239 46.3608 36.0252 48.7631 35.8823C48.7633 35.8823 48.7635 35.8823 48.7637 35.8823L49.9861 35.8059L49.9872 35.8059L50.023 35.8035C51.0051 35.7392 51.9941 35.6675 52.9892 35.5883C52.9894 35.5882 52.9896 35.5882 52.9898 35.5882L54.6407 35.4504C54.641 35.4503 54.6412 35.4503 54.6414 35.4503C56.8992 35.253 59.1172 35.0227 61.2864 34.7625C61.2867 34.7625 61.2869 34.7624 61.2871 34.7624L62.8262 34.5717C62.8264 34.5717 62.8267 34.5717 62.8269 34.5716C63.6028 34.4725 64.372 34.3694 65.1342 34.2627C65.1343 34.2627 65.1345 34.2627 65.1347 34.2627L66.3638 34.0865C66.364 34.0865 66.3642 34.0865 66.3644 34.0864C69.3018 33.6556 72.1282 33.1702 74.8184 32.6385C74.8186 32.6384 74.8188 32.6384 74.8191 32.6383L76.115 32.3764C76.1153 32.3764 76.1155 32.3763 76.1158 32.3763C76.8487 32.2249 77.5708 32.07 78.2816 31.9119C78.2818 31.9118 78.282 31.9118 78.2823 31.9117L79.4007 31.6581C79.4009 31.658 79.4011 31.658 79.4013 31.6579C79.659 31.5984 79.9151 31.5384 80.1696 31.4779L80.3322 32.1562C80.0762 32.217 79.8185 32.2774 79.5593 32.3373L79.5579 32.3376L78.4366 32.592L78.4352 32.5923C77.7203 32.7513 76.9942 32.907 76.2574 33.0592L76.256 33.0595L74.9571 33.322L74.9556 33.3223C72.253 33.8565 69.4148 34.3439 66.4659 34.7764L66.4648 34.7766L65.2335 34.953L65.2323 34.9532C64.467 35.0603 63.6946 35.1638 62.9155 35.2634L62.9141 35.2636L61.3724 35.4546L61.371 35.4547C59.1938 35.7159 56.9678 35.947 54.702 36.145L54.7007 36.1451L53.0471 36.2832L53.0457 36.2833C52.0472 36.3628 51.0547 36.4348 50.0691 36.4994L50.0321 36.5018L50.0311 36.5018L48.8065 36.5783L48.8055 36.5783C46.3947 36.7218 44.0273 36.8209 41.715 36.8775L41.714 36.8775L40.5226 36.903L40.5215 36.903C39.3355 36.9247 38.1647 36.9352 37.0108 36.9346L37.009 36.9346L35.1168 36.9236L35.1149 36.9236C33.583 36.9065 32.0835 36.8696 30.6202 36.8135L30.619 36.8134L28.6545 36.7255L28.6533 36.7254C27.5774 36.6702 26.523 36.6043 25.4917 36.528L25.4898 36.5278L24.0863 36.4162C21.9288 36.2327 19.899 36.0412 17.9692 35.7647L17.9668 35.7644L16.6324 35.5547C16.0988 35.47 15.4594 35.3672 14.9434 35.2746L15.0679 34.5883C15.5758 34.6795 16.2084 34.7812 16.7425 34.866Z" fill="#D93D30"/>
<path fill-rule="evenodd" clip-rule="evenodd" d="M79.8968 25.4532C80.2719 25.2737 80.6876 25.0747 80.9356 24.9517L81.2483 25.5758C80.9968 25.7005 80.5696 25.905 80.1905 26.0864C79.9756 26.1893 79.7763 26.2847 79.6333 26.354L79.6319 26.3546L78.5106 26.8917L78.5092 26.8923C77.5486 27.3474 76.5648 27.8008 75.5592 28.2517L75.5581 28.2522L74.5068 28.7191L74.5057 28.7196C71.8136 29.9042 68.9731 31.0692 66.0096 32.1992L66.0086 32.1996L64.8172 32.6494L64.8161 32.6498C64.3741 32.8151 63.9294 32.9796 63.4823 33.1432L63.4811 33.1436L62.1496 33.6256L62.1484 33.626C60.1601 34.3379 58.1245 35.0322 56.0486 35.7046C55.5771 35.8574 55.1066 36.0079 54.6373 36.1564L54.6363 36.1567L53.4449 36.5296L53.4439 36.5299C51.3097 37.1911 49.2007 37.8039 47.1259 38.3748L46.9391 37.7027C49.0071 37.1337 51.1088 36.523 53.2351 35.8643C53.2353 35.8642 53.2354 35.8642 53.2356 35.8641L54.425 35.4918C54.4251 35.4918 54.4253 35.4917 54.4254 35.4917C54.8931 35.3438 55.3619 35.1937 55.8317 35.0416C57.9006 34.3714 59.9293 33.6795 61.9106 32.9701C61.9108 32.97 61.911 32.9699 61.9111 32.9699L63.2404 32.4887C63.2406 32.4887 63.2408 32.4886 63.2409 32.4885C63.6862 32.3256 64.1289 32.1618 64.5691 31.9973C64.5692 31.9972 64.5694 31.9971 64.5696 31.9971L65.7589 31.548C65.759 31.5479 65.7592 31.5479 65.7594 31.5478C68.712 30.422 71.5412 29.2615 74.2217 28.0821C74.2219 28.082 74.2221 28.0819 74.2223 28.0818L75.2713 27.6159C75.2715 27.6158 75.2716 27.6157 75.2718 27.6157C76.2726 27.1669 77.2516 26.7157 78.2073 26.263C78.2075 26.2629 78.2078 26.2628 78.208 26.2627L79.3266 25.727C79.3268 25.7269 79.3271 25.7267 79.3273 25.7266C79.4767 25.6543 79.68 25.557 79.8968 25.4532Z" fill="#D93D30"/>
</svg>
