<svg width="32" height="32" viewBox="0 0 32 32" fill="none" xmlns="http://www.w3.org/2000/svg">
<path d="M22.6673 8.07846C24.388 9.79901 25.3722 12.1213 25.4116 14.5544C25.4511 16.9874 24.5427 19.3404 22.8787 21.1159L22.6673 21.3346L18.2486 25.7522C17.6879 26.3125 16.9352 26.6388 16.143 26.6649C15.3508 26.691 14.5782 26.415 13.9819 25.8928L13.8319 25.7522L9.4122 21.3335C7.65447 19.5758 6.66699 17.1918 6.66699 14.706C6.66699 12.2202 7.65447 9.83619 9.4122 8.07846C11.1699 6.32073 13.5539 5.33325 16.0397 5.33325C18.5255 5.33325 20.9095 6.32073 22.6673 8.07846ZM16.0397 11.5818C15.6295 11.5818 15.2232 11.6626 14.8441 11.8196C14.4651 11.9766 14.1207 12.2067 13.8306 12.4968C13.5405 12.7869 13.3103 13.1314 13.1533 13.5104C12.9963 13.8895 12.9155 14.2957 12.9155 14.706C12.9155 15.1163 12.9963 15.5225 13.1533 15.9016C13.3103 16.2806 13.5405 16.625 13.8306 16.9152C14.1207 17.2053 14.4651 17.4354 14.8441 17.5924C15.2232 17.7494 15.6295 17.8302 16.0397 17.8302C16.8683 17.8302 17.663 17.5011 18.2489 16.9152C18.8348 16.3292 19.164 15.5346 19.164 14.706C19.164 13.8774 18.8348 13.0827 18.2489 12.4968C17.663 11.9109 16.8683 11.5818 16.0397 11.5818Z" fill="#D93D30"/>
</svg>
