<svg xmlns="http://www.w3.org/2000/svg" width="363" height="594" fill="none"><g filter="url(#a)"><path fill="#fff" d="m260.549 400.638 4.951 3.516 5.62-1.898-3.157 5.514 1.704 6.259-4.952-3.516-5.619 1.898 3.157-5.515-1.704-6.258Z"/></g><path fill="#fff" d="m343.205 310.877 4.391 1.153 3.644-2.961-1.035 4.89 2.658 4.059-4.39-1.154-3.645 2.961 1.036-4.89-2.659-4.058Z"/><g filter="url(#b)"><path fill="#fff" d="m-4.988 8.619 7.607 5.402 8.635-2.916-4.85 8.473 2.617 9.615-7.608-5.402-8.634 2.916 4.85-8.473-2.617-9.615Z"/></g><path fill="#fff" d="m21.235 381.761.133 3.711 2.615 2.303-3.332.148-2.067 2.913-.133-3.711-2.616-2.303 3.332-.148 2.068-2.913ZM242.692 562.837l.612 1.844 1.656.682-1.656.683-.612 1.843-.613-1.843-1.656-.683 1.656-.682.613-1.844Z"/><g filter="url(#c)"><path fill="#fff" d="m288.251 578.679.071 1.964 1.386 1.219-1.764.079-1.094 1.543-.072-1.965-1.385-1.218 1.764-.079 1.094-1.543Z"/></g><g filter="url(#d)"><path fill="#fff" d="m32.337 580.67 2.67 3.2 3.92-.176-2.873 2.975.157 4.365-2.67-3.2-3.92.175 2.873-2.974-.157-4.365Z"/></g><path fill="#fff" d="m358.297 45.162-.165 4.365 2.869 2.98-3.92-.183-2.676 3.194.165-4.365-2.868-2.98 3.919.183 2.676-3.194Z"/><g filter="url(#e)"><path fill="#fff" d="m86.582 259.185 2.635 2.617 3.5-.525-2.35 2.935.47 3.897-2.635-2.617-3.498.525 2.349-2.935-.471-3.897Z"/></g><g filter="url(#f)"><path fill="#fff" d="m275.176 141.962.816.81 1.083-.162-.727.909.146 1.207-.817-.811-1.083.163.727-.909-.145-1.207Z"/></g><path fill="#fff" d="m330.341 194.659.3 3.264 2.421 1.871-2.931.335-1.679 2.695-.301-3.264-2.421-1.87 2.931-.335 1.68-2.696ZM175.567 52.025l.955.238.784-.652-.214 1.063.586.873-.955-.238-.784.652.214-1.063-.586-.873Z"/><defs><filter id="a" width="21.097" height="22.464" x="254.559" y="396.101" color-interpolation-filters="sRGB" filterUnits="userSpaceOnUse"><feFlood flood-opacity="0" result="BackgroundImageFix"/><feBlend in="SourceGraphic" in2="BackgroundImageFix" result="shape"/><feGaussianBlur result="effect1_foregroundBlur_568_30260" stdDeviation="2.268"/></filter><filter id="b" width="27.547" height="29.647" x="-11.757" y="4.082" color-interpolation-filters="sRGB" filterUnits="userSpaceOnUse"><feFlood flood-opacity="0" result="BackgroundImageFix"/><feBlend in="SourceGraphic" in2="BackgroundImageFix" result="shape"/><feGaussianBlur result="effect1_foregroundBlur_568_30260" stdDeviation="2.268"/></filter><filter id="c" width="8.347" height="8.837" x="283.377" y="576.663" color-interpolation-filters="sRGB" filterUnits="userSpaceOnUse"><feFlood flood-opacity="0" result="BackgroundImageFix"/><feBlend in="SourceGraphic" in2="BackgroundImageFix" result="shape"/><feGaussianBlur result="effect1_foregroundBlur_568_30260" stdDeviation="1.008"/></filter><filter id="d" width="13.339" height="14.396" x="27.605" y="578.654" color-interpolation-filters="sRGB" filterUnits="userSpaceOnUse"><feFlood flood-opacity="0" result="BackgroundImageFix"/><feBlend in="SourceGraphic" in2="BackgroundImageFix" result="shape"/><feGaussianBlur result="effect1_foregroundBlur_568_30260" stdDeviation="1.008"/></filter><filter id="e" width="12.045" height="12.956" x="82.687" y="257.169" color-interpolation-filters="sRGB" filterUnits="userSpaceOnUse"><feFlood flood-opacity="0" result="BackgroundImageFix"/><feBlend in="SourceGraphic" in2="BackgroundImageFix" result="shape"/><feGaussianBlur result="effect1_foregroundBlur_568_30260" stdDeviation="1.008"/></filter><filter id="f" width="6.514" height="6.796" x="272.578" y="139.946" color-interpolation-filters="sRGB" filterUnits="userSpaceOnUse"><feFlood flood-opacity="0" result="BackgroundImageFix"/><feBlend in="SourceGraphic" in2="BackgroundImageFix" result="shape"/><feGaussianBlur result="effect1_foregroundBlur_568_30260" stdDeviation="1.008"/></filter></defs></svg>