<svg width="25" height="25" viewBox="0 0 25 25" fill="none" xmlns="http://www.w3.org/2000/svg">
<path d="M16.7998 4.0498H8.2998C6.22874 4.0498 4.5498 5.72874 4.5498 7.7998V16.2998C4.5498 18.3709 6.22874 20.0498 8.2998 20.0498H16.7998C18.8709 20.0498 20.5498 18.3709 20.5498 16.2998V7.7998C20.5498 5.72874 18.8709 4.0498 16.7998 4.0498Z" fill="#001E36"/>
<path d="M8.15015 15.1769V8.31693C8.15015 8.27024 8.17015 8.24361 8.21683 8.24361C8.33015 8.24361 8.43683 8.24361 8.59015 8.23693C8.75015 8.23024 8.91683 8.23024 9.09683 8.22361C9.27683 8.21693 9.47015 8.21693 9.67683 8.21024C9.88346 8.20361 10.0835 8.20361 10.2835 8.20361C10.8301 8.20361 11.2835 8.27024 11.6568 8.41024C11.9915 8.5239 12.2966 8.71064 12.5501 8.95693C12.765 9.17246 12.9309 9.43164 13.0368 9.71693C13.1368 9.99693 13.1901 10.2836 13.1901 10.5836C13.1901 11.1569 13.0568 11.6302 12.7901 12.0036C12.5235 12.3769 12.1501 12.6569 11.7168 12.8169C11.2635 12.9836 10.7635 13.0436 10.2168 13.0436C10.0568 13.0436 9.95015 13.0436 9.88346 13.0369C9.81683 13.0302 9.72346 13.0302 9.59683 13.0302V15.1702C9.60346 15.2169 9.57015 15.2569 9.52346 15.2636H8.23015C8.17683 15.2636 8.15015 15.2369 8.15015 15.1769ZM9.60346 9.53024V11.7702C9.69683 11.7769 9.78346 11.7836 9.86346 11.7836H10.2168C10.4768 11.7836 10.7368 11.7436 10.9835 11.6636C11.1968 11.6036 11.3835 11.4769 11.5301 11.3102C11.6701 11.1436 11.7368 10.9169 11.7368 10.6236C11.7431 10.4153 11.6899 10.2095 11.5835 10.0302C11.4701 9.85693 11.3101 9.72361 11.1168 9.65024C10.8701 9.55024 10.6035 9.51024 10.3301 9.51693C10.1568 9.51693 10.0035 9.51693 9.87683 9.52361C9.74346 9.51693 9.65015 9.52361 9.60346 9.53024ZM17.3501 11.3636C17.1501 11.2569 16.9368 11.1836 16.7101 11.1369C16.4635 11.0836 16.2168 11.0502 15.9635 11.0502C15.8301 11.0436 15.6901 11.0636 15.5635 11.0969C15.4768 11.1169 15.4035 11.1636 15.3568 11.2302C15.3235 11.2836 15.3035 11.3502 15.3035 11.4102C15.3035 11.4702 15.3301 11.5302 15.3701 11.5836C15.4301 11.6569 15.5101 11.7169 15.5968 11.7636C15.7514 11.8437 15.9093 11.9171 16.0701 11.9836C16.4301 12.1036 16.7768 12.2702 17.0968 12.4702C17.3168 12.6102 17.4968 12.7969 17.6235 13.0236C17.7301 13.2369 17.7835 13.4702 17.7768 13.7102C17.7835 14.0236 17.6901 14.3369 17.5168 14.5969C17.3309 14.863 17.0714 15.0692 16.7701 15.1902C16.4435 15.3302 16.0435 15.4036 15.5635 15.4036C15.2568 15.4036 14.9568 15.3769 14.6568 15.3169C14.4217 15.2763 14.193 15.2046 13.9768 15.1036C13.9301 15.0769 13.8968 15.0302 13.9035 14.9769V13.8169C13.9035 13.7969 13.9101 13.7702 13.9301 13.7569C13.9501 13.7436 13.9701 13.7502 13.9901 13.7636C14.2501 13.9169 14.5235 14.0236 14.8168 14.0902C15.0701 14.1569 15.3368 14.1902 15.6035 14.1902C15.8568 14.1902 16.0368 14.1569 16.1568 14.0969C16.2635 14.0502 16.3368 13.9369 16.3368 13.8169C16.3368 13.7236 16.2835 13.6369 16.1768 13.5502C16.0701 13.4636 15.8501 13.3636 15.5235 13.2369C15.1884 13.1188 14.8701 12.9575 14.5768 12.7569C14.3679 12.608 14.1948 12.4144 14.0701 12.1902C13.9635 11.9769 13.9101 11.7436 13.9168 11.5102C13.9168 11.2236 13.9968 10.9502 14.1435 10.7036C14.3101 10.4369 14.5568 10.2236 14.8435 10.0902C15.1568 9.93024 15.5501 9.85693 16.0235 9.85693C16.2968 9.85693 16.5768 9.87693 16.8501 9.91693C17.0501 9.94361 17.2435 9.99693 17.4235 10.0702C17.4501 10.0769 17.4768 10.1036 17.4901 10.1302C17.4968 10.1569 17.5035 10.1836 17.5035 10.2102V11.2969C17.5035 11.3236 17.4901 11.3502 17.4701 11.3636C17.4101 11.3769 17.3768 11.3769 17.3501 11.3636Z" fill="#31A8FF"/>
</svg>
