<svg width="28" height="28" viewBox="0 0 28 28" fill="none" xmlns="http://www.w3.org/2000/svg">
<path d="M21.9994 15.3333H15.3327V22C15.3327 22.3536 15.1922 22.6928 14.9422 22.9428C14.6921 23.1929 14.353 23.3333 13.9994 23.3333C13.6457 23.3333 13.3066 23.1929 13.0565 22.9428C12.8065 22.6928 12.666 22.3536 12.666 22V15.3333H5.99935C5.64573 15.3333 5.30659 15.1929 5.05654 14.9428C4.80649 14.6928 4.66602 14.3536 4.66602 14C4.66602 13.6464 4.80649 13.3072 5.05654 13.0572C5.30659 12.8071 5.64573 12.6667 5.99935 12.6667H12.666V6.00001C12.666 5.64638 12.8065 5.30724 13.0565 5.0572C13.3066 4.80715 13.6457 4.66667 13.9994 4.66667C14.353 4.66667 14.6921 4.80715 14.9422 5.0572C15.1922 5.30724 15.3327 5.64638 15.3327 6.00001V12.6667H21.9994C22.353 12.6667 22.6921 12.8071 22.9422 13.0572C23.1922 13.3072 23.3327 13.6464 23.3327 14C23.3327 14.3536 23.1922 14.6928 22.9422 14.9428C22.6921 15.1929 22.353 15.3333 21.9994 15.3333Z" fill="#D93D30"/>
</svg>
