<svg width="24" height="24" viewBox="0 0 24 24" fill="none" xmlns="http://www.w3.org/2000/svg">
<path d="M18.8598 13.1429H13.1455V18.8571C13.1455 19.1602 13.0251 19.4509 12.8108 19.6653C12.5965 19.8796 12.3058 20 12.0027 20C11.6996 20 11.4089 19.8796 11.1946 19.6653C10.9802 19.4509 10.8598 19.1602 10.8598 18.8571V13.1429H5.14554C4.84244 13.1429 4.55175 13.0224 4.33742 12.8081C4.12309 12.5938 4.00269 12.3031 4.00269 12C4.00269 11.6969 4.12309 11.4062 4.33742 11.1919C4.55175 10.9776 4.84244 10.8571 5.14554 10.8571H10.8598V5.14286C10.8598 4.83975 10.9802 4.54906 11.1946 4.33473C11.4089 4.12041 11.6996 4 12.0027 4C12.3058 4 12.5965 4.12041 12.8108 4.33473C13.0251 4.54906 13.1455 4.83975 13.1455 5.14286V10.8571H18.8598C19.1629 10.8571 19.4536 10.9776 19.668 11.1919C19.8823 11.4062 20.0027 11.6969 20.0027 12C20.0027 12.3031 19.8823 12.5938 19.668 12.8081C19.4536 13.0224 19.1629 13.1429 18.8598 13.1429Z" fill="white"/>
</svg>
