<svg aria-hidden="true" style="position: absolute; width: 0; height: 0; overflow: hidden;" version="1.1"
    xmlns="http://www.w3.org/2000/svg" xmlns:xlink="http://www.w3.org/1999/xlink">
    <defs>
        <symbol id="icon-message" viewBox="0 0 32 32">
            <path
                d="M23.467 6.667c0.816-0 1.602 0.312 2.195 0.872s0.951 1.326 0.999 2.14l0.005 0.188v10.667c0 0.816-0.312 1.602-0.872 2.195s-1.326 0.951-2.14 0.999l-0.188 0.005h-3.944l-2.784 1.856c-0.196 0.131-0.424 0.207-0.66 0.221s-0.471-0.035-0.681-0.141l-0.139-0.080-2.782-1.856h-3.945c-0.816 0-1.602-0.312-2.195-0.872s-0.951-1.326-0.999-2.14l-0.005-0.188v-10.667c-0-0.816 0.312-1.602 0.872-2.195s1.326-0.951 2.14-0.999l0.188-0.005h14.933zM23.467 8.8h-14.933c-0.261 0-0.513 0.096-0.709 0.27s-0.32 0.413-0.351 0.672l-0.007 0.125v10.667c0 0.261 0.096 0.513 0.27 0.709s0.413 0.32 0.672 0.351l0.125 0.008h3.943c0.36-0 0.714 0.091 1.029 0.265l0.155 0.094 2.339 1.559 2.339-1.559c0.3-0.2 0.645-0.321 1.004-0.351l0.18-0.007h3.944c0.261-0 0.513-0.096 0.709-0.27s0.32-0.413 0.351-0.672l0.007-0.125v-10.667c0-0.261-0.096-0.513-0.27-0.709s-0.413-0.32-0.672-0.351l-0.125-0.007zM12.267 14.133c0.424 0 0.831 0.169 1.131 0.469s0.469 0.707 0.469 1.131c0 0.424-0.169 0.831-0.469 1.131s-0.707 0.469-1.131 0.469c-0.424 0-0.831-0.169-1.131-0.469s-0.469-0.707-0.469-1.131c0-0.424 0.168-0.831 0.469-1.131s0.707-0.469 1.131-0.469zM19.733 14.133c0.424 0 0.831 0.169 1.131 0.469s0.469 0.707 0.469 1.131c0 0.424-0.169 0.831-0.469 1.131s-0.707 0.469-1.131 0.469c-0.424 0-0.831-0.169-1.131-0.469s-0.469-0.707-0.469-1.131c0-0.424 0.169-0.831 0.469-1.131s0.707-0.469 1.131-0.469z">
            </path>
        </symbol>
        <symbol id="icon-youtube" viewBox="0 0 31 32">
            <path
                d="M13.388 18.527l5.345-3.090-5.345-3.090v6.179zM25.294 10.464c0.134 0.484 0.226 1.132 0.288 1.956 0.072 0.824 0.103 1.534 0.103 2.152l0.062 0.866c0 2.255-0.164 3.914-0.452 4.974-0.258 0.927-0.855 1.524-1.782 1.781-0.484 0.135-1.369 0.227-2.729 0.289-1.102 0.064-2.393 0.102-3.693 0.103h-0.003l-1.639 0.062c-4.314 0-7.004-0.166-8.064-0.452-0.927-0.258-1.524-0.855-1.782-1.782-0.132-0.484-0.226-1.133-0.288-1.956-0.062-0.641-0.099-1.39-0.103-2.147l-0-0.006-0.062-0.865c0-2.255 0.164-3.914 0.452-4.974 0.258-0.927 0.855-1.524 1.782-1.782 0.484-0.134 1.369-0.226 2.729-0.288 1.102-0.064 2.394-0.102 3.695-0.103h0.003l1.638-0.062c4.314 0 7.004 0.164 8.064 0.452 0.927 0.258 1.524 0.855 1.782 1.782z">
            </path>
        </symbol>
        <symbol id="icon-telegram" viewBox="0 0 31 32">
            <path
                d="M15.448 5.654c-5.685 0-10.298 4.615-10.298 10.3s4.614 10.298 10.298 10.298 10.298-4.614 10.298-10.298-4.612-10.3-10.298-10.3zM20.226 12.658c-0.154 1.628-0.823 5.582-1.163 7.404-0.143 0.772-0.433 1.031-0.701 1.062-0.597 0.052-1.050-0.392-1.626-0.772-0.907-0.597-1.421-0.968-2.297-1.545-1.020-0.67-0.36-1.041 0.227-1.638 0.154-0.154 2.792-2.554 2.842-2.77 0.003-0.013 0.005-0.029 0.005-0.044 0-0.055-0.022-0.105-0.057-0.142l0 0c-0.062-0.051-0.143-0.031-0.216-0.020-0.093 0.020-1.534 0.978-4.346 2.873-0.412 0.278-0.782 0.422-1.112 0.412-0.371-0.011-1.070-0.206-1.596-0.381-0.649-0.206-1.154-0.32-1.112-0.68 0.020-0.185 0.278-0.371 0.761-0.567 3.008-1.308 5.005-2.174 6.005-2.584 2.862-1.195 3.449-1.401 3.841-1.401 0.083 0 0.278 0.021 0.402 0.124 0.080 0.068 0.134 0.166 0.143 0.277l0 0.002c-0.010 0.062 0.011 0.247 0 0.392z">
            </path>
        </symbol>
        <symbol id="icon-linkedin" viewBox="0 0 31 32">
            <path
                d="M23.459 5.654c1.263 0.001 2.287 1.025 2.287 2.289v0 16.021c0 1.264-1.025 2.289-2.289 2.289v0h-16.020c-1.264 0-2.289-1.025-2.289-2.289v0-16.021c0-1.264 1.024-2.288 2.287-2.289h16.020zM22.886 23.391v-6.065c0-2.060-1.67-3.73-3.73-3.73v0c-0.972 0-2.105 0.595-2.655 1.487v-1.271h-3.192v9.578h3.192v-5.641c0-0.882 0.71-1.602 1.591-1.602 0.884 0.001 1.601 0.718 1.601 1.602 0 0 0 0 0 0v0 5.641h3.193zM9.589 12.017c0 0 0.001 0 0.001 0 1.062 0 1.922-0.861 1.922-1.922v0c0-1.064-0.858-1.934-1.923-1.934-1.068 0.001-1.933 0.866-1.933 1.934v0c0 1.064 0.87 1.922 1.933 1.922zM11.18 23.391v-9.578h-3.17v9.578h3.17z">
            </path>
        </symbol>
        <symbol id="icon-instagram" viewBox="0 0 31 32">
            <path
                d="M15.448 5.654c-2.795 0-3.146 0.013-4.244 0.062-1.099 0.052-1.846 0.224-2.502 0.479-0.714 0.273-1.322 0.677-1.823 1.188l-0.001 0.001c-0.511 0.502-0.915 1.11-1.177 1.789l-0.012 0.035c-0.255 0.654-0.429 1.404-0.479 2.498-0.050 1.1-0.062 1.45-0.062 4.248 0 2.797 0.012 3.147 0.062 4.245 0.051 1.097 0.224 1.845 0.479 2.5 0.264 0.678 0.615 1.251 1.188 1.824 0.572 0.574 1.145 0.926 1.823 1.188 0.657 0.254 1.402 0.428 2.499 0.479 1.1 0.049 1.45 0.062 4.248 0.062 2.796 0 3.145-0.013 4.245-0.062 1.096-0.052 1.846-0.224 2.502-0.479 0.713-0.273 1.322-0.677 1.822-1.188l0.001-0.001c0.573-0.574 0.924-1.148 1.187-1.824 0.254-0.655 0.428-1.404 0.479-2.5 0.050-1.098 0.062-1.448 0.062-4.245 0-2.798-0.012-3.148-0.062-4.248-0.051-1.095-0.225-1.844-0.479-2.498-0.273-0.714-0.677-1.322-1.187-1.823l-0.001-0.001c-0.502-0.511-1.111-0.916-1.791-1.177l-0.034-0.012c-0.657-0.254-1.406-0.428-2.502-0.479-1.099-0.049-1.448-0.062-4.246-0.062h0.002zM14.526 7.511h0.922c2.75 0 3.075 0.009 4.16 0.058 1.004 0.045 1.55 0.214 1.914 0.354 0.48 0.188 0.823 0.41 1.184 0.771s0.583 0.703 0.77 1.184c0.141 0.362 0.309 0.908 0.353 1.912 0.051 1.085 0.061 1.41 0.061 4.16 0 2.748-0.011 3.074-0.061 4.16-0.044 1.004-0.213 1.548-0.353 1.911-0.166 0.448-0.429 0.852-0.772 1.184-0.324 0.333-0.72 0.595-1.162 0.762l-0.022 0.007c-0.36 0.142-0.905 0.309-1.911 0.355-1.086 0.050-1.411 0.061-4.16 0.061-2.751 0-3.079-0.011-4.163-0.061-1.004-0.046-1.548-0.213-1.911-0.355-0.464-0.174-0.86-0.436-1.183-0.768l-0.001-0.001c-0.334-0.324-0.598-0.72-0.765-1.163l-0.007-0.022c-0.141-0.362-0.309-0.907-0.354-1.911-0.050-1.086-0.060-1.411-0.060-4.162 0-2.75 0.011-3.074 0.060-4.16 0.046-1.004 0.213-1.549 0.355-1.912 0.186-0.48 0.41-0.824 0.771-1.185 0.324-0.333 0.72-0.595 1.162-0.762l0.022-0.007c0.363-0.142 0.907-0.309 1.911-0.355 0.95-0.044 1.319-0.057 3.239-0.058v0.003zM20.947 9.22c-0.683 0-1.236 0.553-1.236 1.236s0.553 1.236 1.236 1.236v0c0.683 0 1.236-0.553 1.236-1.236s-0.553-1.236-1.236-1.236v0zM15.448 10.665c-0.045-0.001-0.099-0.002-0.152-0.002-2.922 0-5.29 2.368-5.29 5.29 0 2.917 2.361 5.282 5.276 5.29h0.001c0.004 0 0.009 0 0.013 0 2.922 0 5.29-2.368 5.29-5.29 0-2.868-2.282-5.203-5.13-5.288l-0.008-0zM15.448 12.52c0.018-0 0.040-0.001 0.062-0.001 1.896 0 3.434 1.537 3.434 3.434s-1.537 3.434-3.434 3.434c-0.022 0-0.043-0-0.065-0.001l0.003 0c-1.87-0.035-3.372-1.558-3.372-3.433s1.503-3.399 3.369-3.433l0.003-0z">
            </path>
        </symbol>
        <symbol id="icon-facebook" viewBox="0 0 31 32">
            <path
                d="M25.747 15.979c0-5.699-4.612-10.325-10.298-10.325-5.685 0-10.298 4.626-10.298 10.325 0 0.001 0 0.003 0 0.004 0 4.964 3.502 9.11 8.171 10.103l0.068 0.012v-7.021h-2.059v-3.097h2.059v-2.582c0.001-1.992 1.613-3.607 3.605-3.612h2.575v3.097h-2.059c-0.569 0.002-1.030 0.463-1.031 1.033v2.065h3.090v3.097h-3.090v7.176c5.202-0.516 9.269-4.915 9.269-10.273z">
            </path>
        </symbol>
        <symbol id="icon-arrow-right" viewBox="0 0 32 32">
            <path fill="none" stroke="#fff" style="stroke: var(--color1, #fff)" stroke-linejoin="round"
                stroke-linecap="round" stroke-miterlimit="4" stroke-width="2"
                d="M5.333 16h21.333M26.667 16l-8-8M26.667 16l-8 8"></path>
        </symbol>
        <symbol id="icon-arrow-left" viewBox="0 0 32 32">
            <path fill="none" stroke="#fff" style="stroke: var(--color1, #fff)" stroke-linejoin="round"
                stroke-linecap="round" stroke-miterlimit="4" stroke-width="2"
                d="M26.667 16h-21.333M5.333 16l8-8M5.333 16l8 8"></path>
        </symbol>
        <symbol id="icon-modal-close" viewBox="0 0 32 32">
            <path fill="#fff" style="fill: var(--color1, #fff)"
                d="M31.394 3.532c0.357-0.371 0.578-0.877 0.578-1.434 0-1.142-0.926-2.068-2.068-2.068-0.556 0-1.061 0.219-1.432 0.576l0.001-0.001-12.472 12.472-12.468-12.472c-0.378-0.402-0.914-0.653-1.509-0.653-1.143 0-2.070 0.927-2.070 2.070 0 0.594 0.25 1.13 0.652 1.508l0.001 0.001 12.472 12.468-12.472 12.468c-0.348 0.369-0.561 0.868-0.561 1.417 0 1.143 0.927 2.070 2.070 2.070 0.549 0 1.048-0.214 1.418-0.562l-0.001 0.001 12.468-12.472 12.472 12.472c0.371 0.356 0.876 0.576 1.432 0.576 1.142 0 2.068-0.926 2.068-2.068 0-0.557-0.22-1.062-0.578-1.434l0.001 0.001-12.472-12.468 12.472-12.468z">
            </path>
        </symbol>
        <symbol id="icon-burger" viewBox="0 0 32 32">
            <path fill="#fff" style="fill: var(--color1, #fff)"
                d="M5.334 9.523c0-0.841 0.682-1.523 1.523-1.523h18.286c0.842 0 1.524 0.682 1.524 1.524s-0.682 1.524-1.524 1.524v0h-18.286c-0.841 0-1.523-0.682-1.523-1.523 0-0 0-0.001 0-0.001v0zM5.334 15.619c0-0.842 0.682-1.525 1.523-1.525h18.286c0.842 0 1.524 0.682 1.524 1.524s-0.682 1.524-1.524 1.524v0h-18.286c-0.841 0-1.523-0.682-1.523-1.523v0zM5.334 21.714c0-0.841 0.682-1.523 1.523-1.523h18.286c0.841 0 1.523 0.682 1.523 1.523s-0.682 1.523-1.523 1.523h-18.286c-0.841 0-1.523-0.682-1.523-1.523v0z">
            </path>
        </symbol>
        <symbol id="icon-moon" viewBox="0 0 32 32">
            <path
                d="M16.156 15.845A14.543 14.543 0 0 1 13.004.001 16.058 16.058 0 0 0 4.732 4.42c-6.309 6.309-6.309 16.54 0 22.849 6.311 6.311 16.539 6.309 22.85 0a16.073 16.073 0 0 0 4.419-8.271 14.542 14.542 0 0 1-15.845-3.152z" />
        </symbol>
        <symbol id="icon-star" viewBox="0 0 32 32">
            <path
                d="m16 0 1.006 9.972L21.195.867l-2.286 9.758 6.919-7.251-5.331 8.487 8.898-4.612-7.798 6.296 9.914-1.473-9.42 3.423 9.855 1.826-10.021.179 8.728 4.927-9.536-3.084 6.655 7.494-8.018-6.014 3.861 9.249-5.631-8.291.649 10.001L16 22.112l-2.633 9.67.649-10.001-5.631 8.291 3.861-9.249-8.018 6.014 6.655-7.494-9.536 3.084 8.728-4.927-10.021-.179 9.855-1.826-9.42-3.423 9.914 1.473-7.798-6.296 8.898 4.612-5.331-8.487 6.919 7.251L10.805.867l4.189 9.105L16 0z" />
        </symbol>
        <symbol id="icon-rocket" viewBox="0 0 32 32">
            <path fill="none" stroke="#d93d30" stroke-linecap="round" stroke-linejoin="round" stroke-width="2.28"
                d="M4.231 22.814s-2.984 4.451-1.239 6.194c1.743 1.745 6.194-1.239 6.194-1.239" />
            <path
                d="M31.487.513a1.749 1.749 0 0 1 .469 1.626l-.555 2.457a15.774 15.774 0 0 1-4.23 7.666l-8.137 8.137c1.8 2.229 2.383 4.345 1.928 6.364-.475 2.103-2.033 3.655-3 4.62l-.105.105a1.743 1.743 0 0 1-1.453.499 1.743 1.743 0 0 1-1.288-.837l-3.492-5.826a1.78 1.78 0 0 0-.263-.336l-4.503-4.5-1.332-.799 6.061-6.734.012.009 8.137-8.134A15.768 15.768 0 0 1 27.404.6L29.86.043a1.76 1.76 0 0 1 1.626.469zM10.139 11.947c-1.698-.99-3.329-1.265-4.901-.911-2.103.477-3.655 2.033-4.62 3.002l-.105.103a1.743 1.743 0 0 0-.499 1.453 1.757 1.757 0 0 0 .837 1.287l3.147 1.889 6.141-6.823z" />
        </symbol>
        <symbol id="icon-rocket-white" viewBox="0 0 32 32">
            <path fill="none" stroke="#fff" stroke-linecap="round" stroke-linejoin="round" stroke-width="2.28"
                d="M4.231 22.814s-2.984 4.451-1.239 6.194c1.743 1.745 6.194-1.239 6.194-1.239" />
            <path
                d="M31.487.513a1.749 1.749 0 0 1 .469 1.626l-.555 2.457a15.774 15.774 0 0 1-4.23 7.666l-8.137 8.137c1.8 2.229 2.383 4.345 1.928 6.364-.475 2.103-2.033 3.655-3 4.62l-.105.105a1.743 1.743 0 0 1-1.453.499 1.743 1.743 0 0 1-1.288-.837l-3.492-5.826a1.78 1.78 0 0 0-.263-.336l-4.503-4.5-1.332-.799 6.061-6.734.012.009 8.137-8.134A15.768 15.768 0 0 1 27.404.6L29.86.043a1.76 1.76 0 0 1 1.626.469zM10.139 11.947c-1.698-.99-3.329-1.265-4.901-.911-2.103.477-3.655 2.033-4.62 3.002l-.105.103a1.743 1.743 0 0 0-.499 1.453 1.757 1.757 0 0 0 .837 1.287l3.147 1.889 6.141-6.823z" />
        </symbol>
        <symbol id="icon-saturn" viewBox="0 0 32 32">
            <path
                d="M28.655.11c.844.025 1.685.272 2.318.914.977.98 1.043 2.41.782 3.741-.27 1.375-.945 2.973-1.898 4.674-1.915 3.417-5.094 7.498-9.027 11.479-3.939 3.987-8.023 7.17-11.455 9.076-1.709.949-3.315 1.615-4.698 1.877-1.339.254-2.771.178-3.748-.799-.695-.695-.932-1.634-.923-2.57.008-.932.257-1.975.664-3.064.816-2.185 2.359-4.798 4.428-7.543a1.142 1.142 0 1 1 1.824 1.377c-1.998 2.65-3.402 5.065-4.112 6.966-.356.953-.514 1.718-.519 2.285-.005.564.138.816.254.933.166.166.618.376 1.707.17 1.045-.198 2.41-.738 4.014-1.629 3.195-1.774 7.109-4.808 10.938-8.684 3.836-3.882 6.872-7.801 8.659-10.99.897-1.601 1.445-2.958 1.649-3.997.212-1.081.005-1.525-.158-1.687l-.006-.006c-.097-.099-.301-.222-.761-.236-.47-.014-1.112.093-1.93.365-1.632.542-3.722 1.655-6.07 3.24a1.142 1.142 0 1 1-1.278-1.895c2.427-1.638 4.714-2.879 6.629-3.514.956-.317 1.88-.504 2.717-.48z" />
            <path
                d="M23.307 7.771a10.275 10.275 0 0 0-13.44.956 10.291 10.291 0 0 0-.955 13.445 1.143 1.143 0 0 1-1.828 1.371A12.578 12.578 0 0 1 8.251 7.111a12.561 12.561 0 0 1 16.427-1.167 1.142 1.142 0 1 1-1.372 1.829zm3.752 2.435a1.142 1.142 0 0 1 1.514.564 12.57 12.57 0 0 1-.856 12.026 12.572 12.572 0 0 1-10.58 5.775 12.678 12.678 0 0 1-4.895-.98 1.144 1.144 0 0 1 .879-2.11c1.272.531 2.637.804 4.015.803h.001A10.28 10.28 0 0 0 27.4 16.729a10.29 10.29 0 0 0-.906-5.009 1.144 1.144 0 0 1 .564-1.515zm-9.922 18.365.001-1.143v1.143h-.001z" />
        </symbol>
        <symbol id="arrow-up-to-right" viewBox="0 0 32 32">
            <path
                d="M3.2 5.333a2.133 2.133 0 0 1 0-4.266h25.6c1.178 0 2.133.955 2.133 2.133v25.6a2.133 2.133 0 0 1-4.266 0V8.352L4.709 30.309a2.134 2.134 0 0 1-3.018-3.018L23.649 5.333H3.199z" />
        </symbol>
        <symbol id="icon-llustrator" viewBox="0 0 30 32">
            <path fill="#300"
                d="M20.392 6.525H9.725a4.706 4.706 0 0 0-4.706 4.706v10.667a4.706 4.706 0 0 0 4.706 4.706h10.667a4.706 4.706 0 0 0 4.706-4.706V11.231a4.706 4.706 0 0 0-4.706-4.706z"
                style="fill:var(--color1, #300)" />
            <path fill="#ff9a00"
                d="M14.723 18.473h-3.112l-.636 1.966a.146.146 0 0 1-.159.117H9.243c-.092 0-.117-.05-.092-.151l2.694-7.755c.025-.084.05-.176.084-.276.034-.176.05-.36.05-.544-.008-.042.025-.084.067-.092h2.167c.067 0 .1.025.109.067l3.054 8.617c.025.092 0 .134-.084.134h-1.749a.126.126 0 0 1-.134-.092l-.686-1.991zm-2.626-1.698h2.125c-.05-.176-.117-.385-.192-.602a25.245 25.245 0 0 1-.226-.719c-.084-.259-.159-.51-.243-.77s-.159-.502-.226-.745c-.067-.234-.126-.452-.184-.653h-.017c-.075.36-.167.72-.284 1.079-.126.402-.251.82-.385 1.238-.108.395-.231.786-.368 1.171zm7.144-3.573c-.276.008-.544-.1-.745-.293a1.085 1.085 0 0 1-.284-.77c-.008-.284.1-.552.301-.745s.469-.293.745-.293c.326 0 .577.1.761.293.185.203.284.47.276.745.008.284-.092.56-.293.77a.982.982 0 0 1-.761.293zm-.937 7.262v-6.442c0-.084.033-.117.109-.117h1.656c.075 0 .109.042.109.117v6.442c0 .092-.034.134-.109.134h-1.64c-.084 0-.125-.05-.125-.134z"
                style="fill:var(--color2, #ff9a00)" />
        </symbol>
        <symbol id="icon-photoshop" viewBox="0 0 30 32">
            <path fill="#001e36"
                d="M20.392 5.772H9.725a4.706 4.706 0 0 0-4.706 4.706v10.667a4.706 4.706 0 0 0 4.706 4.706h10.667a4.706 4.706 0 0 0 4.706-4.706V10.478a4.706 4.706 0 0 0-4.706-4.706z"
                style="fill:var(--color3, #001e36)" />
            <path fill="#31a8ff"
                d="M9.538 19.736v-8.609c0-.059.025-.092.084-.092.142 0 .276 0 .468-.008.201-.008.41-.008.636-.017s.468-.008.728-.017c.259-.008.51-.008.761-.008.686 0 1.255.084 1.723.259.42.143.803.377 1.121.686.27.27.478.596.611.954.125.351.192.711.192 1.088 0 .719-.167 1.313-.502 1.782s-.803.82-1.347 1.021c-.569.209-1.196.284-1.882.284-.201 0-.335 0-.418-.008s-.201-.008-.36-.008v2.686a.104.104 0 0 1-.092.117H9.638c-.067 0-.1-.034-.1-.109zm1.823-7.086v2.811c.117.008.226.017.326.017h.443c.326 0 .653-.05.962-.151.268-.075.502-.234.686-.443.176-.209.259-.494.259-.862a1.383 1.383 0 0 0-.192-.745 1.214 1.214 0 0 0-.586-.477 2.453 2.453 0 0 0-.987-.167c-.217 0-.41 0-.569.008-.167-.008-.284 0-.343.008zm9.722 2.301a2.941 2.941 0 0 0-.803-.284 4.409 4.409 0 0 0-.937-.109 1.693 1.693 0 0 0-.502.059.428.428 0 0 0-.259.167c-.042.067-.067.151-.067.226s.034.151.084.218a.947.947 0 0 0 .285.226c.194.1.392.193.594.276.452.151.887.36 1.288.611.276.176.502.41.661.694.134.268.201.56.193.862.008.393-.109.786-.326 1.113a2.096 2.096 0 0 1-.937.745c-.41.176-.912.268-1.514.268a5.79 5.79 0 0 1-1.138-.109 3.358 3.358 0 0 1-.853-.268c-.059-.034-.1-.092-.092-.159v-1.456c0-.025.008-.059.034-.075s.05-.008.075.008c.326.192.669.326 1.037.41.318.084.653.125.987.125.318 0 .544-.042.694-.117a.39.39 0 0 0 .226-.351c0-.117-.067-.226-.201-.335s-.41-.234-.82-.393a5.126 5.126 0 0 1-1.188-.602 2.179 2.179 0 0 1-.636-.711 1.785 1.785 0 0 1-.192-.853c0-.36.1-.703.284-1.012.209-.335.519-.602.878-.77.393-.201.887-.293 1.481-.293.343 0 .694.025 1.037.075.251.034.494.1.719.192.034.008.067.042.084.075.008.034.017.067.017.1v1.364a.104.104 0 0 1-.042.084c-.075.017-.117.017-.151 0z"
                style="fill:var(--color4, #31a8ff)" />
        </symbol>
        <symbol id="icon-figma" viewBox="0 0 32 32">
            <path fill="#0acf83"
                d="M12.889 26.666a3.55 3.55 0 0 0 3.556-3.555v-3.556h-3.556c-1.968 0-3.556 1.588-3.556 3.556s1.588 3.555 3.556 3.555z"
                style="fill:var(--color5, #0acf83)" />
            <path fill="#a259ff"
                d="M9.333 16a3.55 3.55 0 0 1 3.556-3.556h3.556v7.111h-3.556a3.55 3.55 0 0 1-3.556-3.556z"
                style="fill:var(--color6, #a259ff)" />
            <path fill="#f24e1e"
                d="M9.333 8.889a3.55 3.55 0 0 1 3.556-3.556h3.556v7.111h-3.556a3.55 3.55 0 0 1-3.556-3.556z"
                style="fill:var(--color7, #f24e1e)" />
            <path fill="#ff7262"
                d="M16.444 5.333H20c1.968 0 3.555 1.588 3.555 3.556S21.967 12.445 20 12.445h-3.556V5.334z"
                style="fill:var(--color8, #ff7262)" />
            <path fill="#1abcfe"
                d="M23.555 16c0 1.968-1.588 3.556-3.555 3.556S16.444 17.968 16.444 16s1.588-3.556 3.556-3.556A3.55 3.55 0 0 1 23.555 16z"
                style="fill:var(--color9, #1abcfe)" />
        </symbol>

        <symbol id="icon-play" viewBox="0 0 32 32">
            <path
                d="M16 26.667c-2.829 0-5.542-1.124-7.542-3.124s-3.124-4.713-3.124-7.542c0-2.829 1.124-5.542 3.124-7.543s4.713-3.124 7.542-3.124c2.829 0 5.542 1.124 7.543 3.124s3.124 4.713 3.124 7.543c0 2.829-1.124 5.542-3.124 7.542s-4.714 3.124-7.543 3.124zM15.407 12.224c-0.201-0.134-0.434-0.211-0.675-0.223s-0.481 0.042-0.694 0.156c-0.213 0.114-0.391 0.283-0.515 0.491s-0.19 0.444-0.19 0.685v5.333c-0 0.241 0.065 0.478 0.19 0.685s0.302 0.376 0.515 0.49 0.453 0.168 0.694 0.156c0.241-0.012 0.475-0.089 0.675-0.223l4-2.667c0.183-0.122 0.332-0.287 0.436-0.48s0.158-0.41 0.158-0.629c0-0.22-0.054-0.436-0.158-0.629s-0.253-0.358-0.436-0.48l-4-2.667z">
            </path>
        </symbol>
        <symbol id="icon-task-list" viewBox="0 0 30 32">
            <path fill="#fff" style="fill: var(--color1, #fff)"
                d="M9.762 7.365c0.335 0.335 0.335 0.881 0 1.219l-2.297 2.294c-0.156 0.156-0.371 0.252-0.609 0.252s-0.453-0.096-0.609-0.252v0l-0.916-0.918c-0.159-0.156-0.258-0.374-0.258-0.614 0-0.476 0.386-0.861 0.861-0.861 0.24 0 0.458 0.099 0.614 0.257l0.31 0.31 1.687-1.687c0.335-0.335 0.881-0.335 1.218 0zM11.046 9.581c0-0.476 0.386-0.861 0.861-0.861h12.631c0.476 0 0.861 0.386 0.861 0.861s-0.386 0.861-0.861 0.861v0h-12.631c-0.476 0-0.861-0.386-0.861-0.861v0zM9.762 14.255c0.335 0.335 0.335 0.881 0 1.218l-2.297 2.297c-0.156 0.156-0.371 0.252-0.609 0.252s-0.453-0.096-0.609-0.252v0l-0.918-0.919c-0.156-0.156-0.253-0.372-0.253-0.61 0-0.476 0.386-0.862 0.862-0.862 0.238 0 0.453 0.096 0.609 0.252v0l0.309 0.311 1.687-1.687c0.335-0.335 0.881-0.335 1.218 0zM11.046 16.471c0-0.476 0.386-0.861 0.861-0.861h12.631c0.476 0 0.861 0.386 0.861 0.861s-0.386 0.861-0.861 0.861h-12.631c-0.476 0-0.861-0.386-0.861-0.861v0zM9.762 21.144c0.335 0.335 0.335 0.881 0 1.218l-2.297 2.295c-0.156 0.156-0.371 0.252-0.609 0.252s-0.453-0.096-0.609-0.252l-0.918-0.918c-0.156-0.156-0.253-0.372-0.253-0.61 0-0.476 0.386-0.862 0.862-0.862 0.238 0 0.453 0.096 0.609 0.252v0l0.309 0.311 1.687-1.687c0.335-0.337 0.881-0.337 1.218 0zM11.046 23.36c0-0.476 0.386-0.861 0.861-0.861h12.631c0.476 0 0.861 0.386 0.861 0.861s-0.386 0.861-0.861 0.861h-12.631c-0.476 0-0.861-0.386-0.861-0.861v0z">
            </path>
        </symbol>
        <symbol id="icon-lesson" viewBox="0 0 30 32">
            <path fill="#fff" style="fill: var(--color1, #fff)"
                d="M19.657 26.166v0c-3.172 0-5.743-2.571-5.743-5.743s2.571-5.743 5.743-5.743v0c3.172 0 5.743 2.571 5.743 5.743s-2.571 5.743-5.743 5.743zM19.337 18.39c-0.112-0.075-0.249-0.119-0.396-0.119-0.396 0-0.718 0.32-0.719 0.716v2.872c0 0.001 0 0.002 0 0.003 0 0.396 0.321 0.716 0.716 0.716 0.149 0 0.287-0.045 0.402-0.123l-0.003 0.002 2.154-1.437c0.193-0.131 0.319-0.349 0.319-0.597s-0.125-0.466-0.316-0.595l-0.003-0.002-2.154-1.436z">
            </path>
            <path fill="#fff" style="fill: var(--color1, #fff)"
                d="M13.028 10.139c0-0.421-0.341-0.762-0.762-0.762v0h-2.891c-0.421 0-0.762 0.341-0.762 0.762v0 4.961c0.001 0.42 0.342 0.761 0.762 0.761 0.145 0 0.28-0.040 0.395-0.11l-0.003 0.002 0.663-0.396c0.112-0.068 0.248-0.109 0.393-0.109s0.28 0.040 0.396 0.111l-0.003-0.002 0.662 0.396c0.112 0.069 0.248 0.109 0.393 0.109 0.421 0 0.762-0.341 0.762-0.762v-4.961z">
            </path>
            <path fill="#fff" style="fill: var(--color1, #fff)"
                d="M6.844 5.842h12.371c0.976 0.001 1.767 0.792 1.767 1.768v0 4.416c0 1.326-1.768 1.326-1.768 0v-4.416h-12.368v12.371h4.414c1.326 0 1.326 1.768 0 1.768h-4.416c-0.001 0-0.003 0-0.004 0-0.487 0-0.927-0.2-1.242-0.523l-0-0c-0.322-0.316-0.521-0.755-0.521-1.241 0-0.002 0-0.003 0-0.005v0-12.371c0-0.982 0.787-1.768 1.768-1.768z">
            </path>
        </symbol>
        <symbol id="icon-time" viewBox="0 0 32 32"><path fill="#d93d30" d="M5.333 16c0-5.891 4.775-10.667 10.667-10.667S26.667 10.108 26.667 16c0 5.891-4.776 10.667-10.667 10.667S5.333 21.891 5.333 16zM16 7.273c-4.82 0-8.727 3.907-8.727 8.727S11.18 24.727 16 24.727 24.727 20.82 24.727 16 20.82 7.273 16 7.273z" style="fill:var(--color1, #d93d30)"/><path fill="#d93d30" d="M16.004 9.212a.97.97 0 0 1 .97.97v5.421l3.827 3.827a.969.969 0 1 1-1.371 1.371l-4.111-4.112a.969.969 0 0 1-.284-.686V10.18a.97.97 0 0 1 .97-.97z" style="fill:var(--color1, #d93d30)"/></symbol><symbol id="icon-phone-fill" viewBox="0 0 32 32"><path fill="#d93d30" d="M26.654 21.448a6 6 0 0 1-5.961 5.218c-8.469 0-15.36-6.891-15.36-15.36a6.001 6.001 0 0 1 5.218-5.961 1.702 1.702 0 0 1 1.773 1.015l2.253 5.029v.013a1.717 1.717 0 0 1-.135 1.61.968.968 0 0 1-.061.082l-2.221 2.633c.799 1.624 2.497 3.307 4.142 4.108l2.596-2.209c.026-.021.052-.041.08-.06a1.704 1.704 0 0 1 1.618-.15l.014.006 5.025 2.252a1.709 1.709 0 0 1 1.019 1.773z" style="fill:var(--color1, #d93d30)"/></symbol><symbol id="icon-majesticons_mail" viewBox="0 0 32 32"><path fill="#d93d30" d="M8.533 25.067a3.2 3.2 0 0 1-3.2-3.2V11.2a3.2 3.2 0 0 1 3.2-3.2h14.933a3.2 3.2 0 0 1 3.2 3.2v10.667a3.2 3.2 0 0 1-3.2 3.2H8.533zm2.8-12.566A1.067 1.067 0 1 0 10 14.164l4 3.201a3.203 3.203 0 0 0 4 0l4-3.2c.11-.088.201-.196.268-.319s.11-.258.126-.397a1.078 1.078 0 0 0-.228-.785 1.083 1.083 0 0 0-.716-.394 1.06 1.06 0 0 0-.784.228l-4 3.2a1.063 1.063 0 0 1-1.334 0l-4-3.199z" style="fill:var(--color1, #d93d30)"/></symbol>
    </defs>
</svg>