<svg xmlns="http://www.w3.org/2000/svg" width="160" height="160" ><path fill="#D93D30" fill-rule="evenodd" d="m98.225 48.105-13.217-35.72c-1.72-4.648-8.295-4.648-10.016 0l-13.217 35.72a23.138 23.138 0 0 1-13.67 13.67l-35.72 13.217c-4.648 1.72-4.648 8.295 0 10.016l35.72 13.217a23.138 23.138 0 0 1 13.67 13.67l13.217 35.719c1.72 4.649 8.295 4.649 10.016 0l13.217-35.719a23.137 23.137 0 0 1 13.67-13.67l35.719-13.217c4.649-1.72 4.649-8.295 0-10.016l-35.719-13.217a23.138 23.138 0 0 1-13.67-13.67ZM93.354 9.297c-4.587-12.396-22.12-12.396-26.708 0L53.43 45.017a14.24 14.24 0 0 1-8.413 8.412L9.297 66.646c-12.396 4.587-12.396 22.12 0 26.708l35.72 13.217a14.238 14.238 0 0 1 8.412 8.413l13.217 35.719c4.587 12.396 22.12 12.396 26.708 0l13.217-35.719a14.236 14.236 0 0 1 8.413-8.413l35.719-13.217c12.396-4.587 12.396-22.12 0-26.708L114.984 53.43a14.238 14.238 0 0 1-8.413-8.413L93.354 9.297Z" clip-rule="evenodd"/></svg>