<svg width="1905" height="9168" viewBox="0 0 1905 9168" fill="none" xmlns="http://www.w3.org/2000/svg">
<g filter="url(#filter0_f_79_5160)">
<path d="M1866 1170L1870.32 1179.85L1882 1183.5L1870.32 1187.15L1866 1197L1861.68 1187.15L1850 1183.5L1861.68 1179.85L1866 1170Z" fill="white"/>
</g>
<path d="M78 1409L73.6785 1399.15L62 1395.5L73.6785 1391.85L78 1382L82.3215 1391.85L94 1395.5L82.3215 1399.15L78 1409Z" fill="white"/>
<path d="M725 1390L723.379 1383.8L719 1381.5L723.379 1379.2L725 1373L726.621 1379.2L731 1381.5L726.621 1383.8L725 1390Z" fill="white"/>
<path d="M1331.5 702L1336.23 712.949L1349 717L1336.23 721.051L1331.5 732L1326.77 721.051L1314 717L1326.77 712.949L1331.5 702Z" fill="white"/>
<path d="M234 587L235.08 589.19L238 590L235.08 590.81L234 593L232.92 590.81L230 590L232.92 589.19L234 587Z" fill="white"/>
<g filter="url(#filter1_f_79_5160)">
<path d="M71 993L73.4308 998.109L80 1000L73.4308 1001.89L71 1007L68.5692 1001.89L62 1000L68.5692 998.109L71 993Z" fill="white"/>
</g>
<path d="M1873 1586L1870.57 1580.89L1864 1579L1870.57 1577.11L1873 1572L1875.43 1577.11L1882 1579L1875.43 1580.89L1873 1586Z" fill="white"/>
<path d="M334 0L338.321 9.85378L350 13.5L338.321 17.1462L334 27L329.679 17.1462L318 13.5L329.679 9.85378L334 0Z" fill="white"/>
<g filter="url(#filter2_f_79_5160)">
<path d="M1815 503L1818.24 512.854L1827 516.5L1818.24 520.146L1815 530L1811.76 520.146L1803 516.5L1811.76 512.854L1815 503Z" fill="white"/>
</g>
<path d="M131 2076L128.299 2066.15L121 2062.5L128.299 2058.85L131 2049L133.701 2058.85L141 2062.5L133.701 2066.15L131 2076Z" fill="white"/>
<g filter="url(#filter3_f_79_5160)">
<path d="M1714.5 2385L1710.58 2375.15L1700 2371.5L1710.58 2367.85L1714.5 2358L1718.42 2367.85L1729 2371.5L1718.42 2375.15L1714.5 2385Z" fill="white"/>
</g>
<g filter="url(#filter4_f_79_5160)">
<path d="M1856 2358L1849.52 2341.58L1832 2335.5L1849.52 2329.42L1856 2313L1862.48 2329.42L1880 2335.5L1862.48 2341.58L1856 2358Z" fill="white"/>
</g>
<path d="M606 3197L604.109 3192.26L599 3190.5L604.109 3188.74L606 3184L607.891 3188.74L613 3190.5L607.891 3192.26L606 3197Z" fill="white"/>
<g filter="url(#filter5_f_79_5160)">
<path d="M66.5 3404L63.1239 3395.61L54 3392.5L63.1239 3389.39L66.5 3381L69.8761 3389.39L79 3392.5L69.8761 3395.61L66.5 3404Z" fill="white"/>
</g>
<path d="M1814.5 3527L1812.74 3522.99L1808 3521.5L1812.74 3520.01L1814.5 3516L1816.26 3520.01L1821 3521.5L1816.26 3522.99L1814.5 3527Z" fill="white"/>
<path d="M1712.5 3928L1710.74 3923.99L1706 3922.5L1710.74 3921.01L1712.5 3917L1714.26 3921.01L1719 3922.5L1714.26 3923.99L1712.5 3928Z" fill="white"/>
<g filter="url(#filter6_f_79_5160)">
<path d="M50.5 4062L47.9341 4055.07L41 4052.5L47.9341 4049.93L50.5 4043L53.0659 4049.93L60 4052.5L53.0659 4055.07L50.5 4062Z" fill="white"/>
</g>
<path d="M940 3997L938.92 3994.08L936 3993L938.92 3991.92L940 3989L941.08 3991.92L944 3993L941.08 3994.08L940 3997Z" fill="white"/>
<g filter="url(#filter7_f_79_5160)">
<path d="M1384 3884L1382.92 3881.08L1380 3880L1382.92 3878.92L1384 3876L1385.08 3878.92L1388 3880L1385.08 3881.08L1384 3884Z" fill="white"/>
</g>
<path d="M833.5 4606L832.825 4604.18L831 4603.5L832.825 4602.82L833.5 4601L834.175 4602.82L836 4603.5L834.175 4604.18L833.5 4606Z" fill="white"/>
<g filter="url(#filter8_f_79_5160)">
<path d="M1850.5 4543L1847.93 4538.26L1841 4536.5L1847.93 4534.74L1850.5 4530L1853.07 4534.74L1860 4536.5L1853.07 4538.26L1850.5 4543Z" fill="white"/>
</g>
<path d="M1900 4137L1898.65 4134.45L1895 4133.5L1898.65 4132.55L1900 4130L1901.35 4132.55L1905 4133.5L1901.35 4134.45L1900 4137Z" fill="white"/>
<g filter="url(#filter9_f_79_5160)">
<path d="M97 4502L94.029 4496.16L86 4494L94.029 4491.84L97 4486L99.971 4491.84L108 4494L99.971 4496.16L97 4502Z" fill="white"/>
</g>
<path d="M679 4631L677.109 4627.35L672 4626L677.109 4624.65L679 4621L680.891 4624.65L686 4626L680.891 4627.35L679 4631Z" fill="white"/>
<path d="M1373.5 4566L1369.58 4562.35L1359 4561L1369.58 4559.65L1373.5 4556L1377.42 4559.65L1388 4561L1377.42 4562.35L1373.5 4566Z" fill="white"/>
<path d="M851.5 4596L850.825 4594.18L849 4593.5L850.825 4592.82L851.5 4591L852.175 4592.82L854 4593.5L852.175 4594.18L851.5 4596Z" fill="white"/>
<path d="M922.5 4631L921.825 4629.18L920 4628.5L921.825 4627.82L922.5 4626L923.175 4627.82L925 4628.5L923.175 4629.18L922.5 4631Z" fill="white"/>
<path d="M1245.5 3233L1244.82 3231.18L1243 3230.5L1244.82 3229.82L1245.5 3228L1246.18 3229.82L1248 3230.5L1246.18 3231.18L1245.5 3233Z" fill="white"/>
<path d="M261.5 2371L260.825 2369.18L259 2368.5L260.825 2367.82L261.5 2366L262.175 2367.82L264 2368.5L262.175 2369.18L261.5 2371Z" fill="white"/>
<path d="M345.5 2363L344.825 2361.18L343 2360.5L344.825 2359.82L345.5 2358L346.175 2359.82L348 2360.5L346.175 2361.18L345.5 2363Z" fill="white"/>
<path d="M44 2311L42.6495 2307.35L39 2306L42.6495 2304.65L44 2301L45.3505 2304.65L49 2306L45.3505 2307.35L44 2311Z" fill="white"/>
<path d="M287 2780L284.299 2770.15L277 2766.5L284.299 2762.85L287 2753L289.701 2762.85L297 2766.5L289.701 2770.15L287 2780Z" fill="white"/>
<path d="M1863 2853L1861.11 2846.07L1856 2843.5L1861.11 2840.93L1863 2834L1864.89 2840.93L1870 2843.5L1864.89 2846.07L1863 2853Z" fill="white"/>
<path d="M1423.5 1636L1420.93 1630.16L1414 1628L1420.93 1625.84L1423.5 1620L1426.07 1625.84L1433 1628L1426.07 1630.16L1423.5 1636Z" fill="white"/>
<g filter="url(#filter10_f_79_5160)">
<path d="M1433.5 7454L1438.23 7464.95L1451 7469L1438.23 7473.05L1433.5 7484L1428.77 7473.05L1416 7469L1428.77 7464.95L1433.5 7454Z" fill="white"/>
</g>
<g filter="url(#filter11_f_79_5160)">
<path d="M1856.5 7915L1863.66 7933.98L1883 7941L1863.66 7948.02L1856.5 7967L1849.34 7948.02L1830 7941L1849.34 7933.98L1856.5 7915Z" fill="white"/>
</g>
<path d="M97 7488L98.8906 7493.11L104 7495L98.8906 7496.89L97 7502L95.1094 7496.89L90 7495L95.1094 7493.11L97 7488Z" fill="white"/>
<path d="M867 8310L868.08 8312.92L871 8314L868.08 8315.08L867 8318L865.92 8315.08L863 8314L865.92 8312.92L867 8310Z" fill="white"/>
<path d="M1431 8257L1431.54 8258.46L1433 8259L1431.54 8259.54L1431 8261L1430.46 8259.54L1429 8259L1430.46 8258.46L1431 8257Z" fill="white"/>
<path d="M1828 8699L1828.54 8700.46L1830 8701L1828.54 8701.54L1828 8703L1827.46 8701.54L1826 8701L1827.46 8700.46L1828 8699Z" fill="white"/>
<path d="M1897 8764L1897.54 8765.46L1899 8766L1897.54 8766.54L1897 8768L1896.46 8766.54L1895 8766L1896.46 8765.46L1897 8764Z" fill="white"/>
<path d="M80.5 7509L81.4453 7511.55L84 7512.5L81.4453 7513.45L80.5 7516L79.5547 7513.45L77 7512.5L79.5547 7511.55L80.5 7509Z" fill="white"/>
<path d="M85.5 8975L86.9855 8979.01L91 8980.5L86.9855 8981.99L85.5 8986L84.0145 8981.99L80 8980.5L84.0145 8979.01L85.5 8975Z" fill="white"/>
<path d="M37 8680L41.5915 8692.41L54 8697L41.5915 8701.59L37 8714L32.4085 8701.59L20 8697L32.4085 8692.41L37 8680Z" fill="white"/>
<g filter="url(#filter12_f_79_5160)">
<path d="M66.3364 5562.06L61.1365 5574.22L66.9872 5586.09L54.8212 5580.89L42.9544 5586.74L48.1544 5574.57L42.3036 5562.71L54.4697 5567.91L66.3364 5562.06Z" fill="white"/>
</g>
<g filter="url(#filter13_f_79_5160)">
<path d="M1751 9087L1759.64 9102.33L1783 9108L1759.64 9113.67L1751 9129L1742.36 9113.67L1719 9108L1742.36 9102.33L1751 9087Z" fill="white"/>
</g>
<path d="M566.5 9147L569.336 9154.66L577 9157.5L569.336 9160.34L566.5 9168L563.664 9160.34L556 9157.5L563.664 9154.66L566.5 9147Z" fill="white"/>
<g filter="url(#filter14_f_79_5160)">
<path d="M1534.5 7724L1538.42 7734.58L1549 7738.5L1538.42 7742.42L1534.5 7753L1530.58 7742.42L1520 7738.5L1530.58 7734.58L1534.5 7724Z" fill="white"/>
</g>
<path d="M1284.5 7777L1286.53 7782.11L1292 7784L1286.53 7785.89L1284.5 7791L1282.47 7785.89L1277 7784L1282.47 7782.11L1284.5 7777Z" fill="white"/>
<g filter="url(#filter15_f_79_5160)">
<path d="M54.5 8241L58.1462 8248.66L68 8251.5L58.1462 8254.34L54.5 8262L50.8538 8254.34L41 8251.5L50.8538 8248.66L54.5 8241Z" fill="white"/>
</g>
<g filter="url(#filter16_f_79_5160)">
<path d="M380.944 5255.38L378.321 5263.45L383.524 5272.29L374.42 5267.57L366.503 5270.63L369.126 5262.56L363.923 5253.72L373.027 5258.44L380.944 5255.38Z" fill="white"/>
</g>
<path d="M1836.5 8450L1843.12 8464.23L1861 8469.5L1843.12 8474.77L1836.5 8489L1829.88 8474.77L1812 8469.5L1829.88 8464.23L1836.5 8450Z" fill="white"/>
<defs>
<filter id="filter0_f_79_5160" x="1846" y="1166" width="40" height="35" filterUnits="userSpaceOnUse" color-interpolation-filters="sRGB">
<feFlood flood-opacity="0" result="BackgroundImageFix"/>
<feBlend mode="normal" in="SourceGraphic" in2="BackgroundImageFix" result="shape"/>
<feGaussianBlur stdDeviation="2" result="effect1_foregroundBlur_79_5160"/>
</filter>
<filter id="filter1_f_79_5160" x="58" y="989" width="26" height="22" filterUnits="userSpaceOnUse" color-interpolation-filters="sRGB">
<feFlood flood-opacity="0" result="BackgroundImageFix"/>
<feBlend mode="normal" in="SourceGraphic" in2="BackgroundImageFix" result="shape"/>
<feGaussianBlur stdDeviation="2" result="effect1_foregroundBlur_79_5160"/>
</filter>
<filter id="filter2_f_79_5160" x="1801" y="501" width="28" height="31" filterUnits="userSpaceOnUse" color-interpolation-filters="sRGB">
<feFlood flood-opacity="0" result="BackgroundImageFix"/>
<feBlend mode="normal" in="SourceGraphic" in2="BackgroundImageFix" result="shape"/>
<feGaussianBlur stdDeviation="1" result="effect1_foregroundBlur_79_5160"/>
</filter>
<filter id="filter3_f_79_5160" x="1689" y="2347" width="51" height="49" filterUnits="userSpaceOnUse" color-interpolation-filters="sRGB">
<feFlood flood-opacity="0" result="BackgroundImageFix"/>
<feBlend mode="normal" in="SourceGraphic" in2="BackgroundImageFix" result="shape"/>
<feGaussianBlur stdDeviation="5.5" result="effect1_foregroundBlur_79_5160"/>
</filter>
<filter id="filter4_f_79_5160" x="1830" y="2311" width="52" height="49" filterUnits="userSpaceOnUse" color-interpolation-filters="sRGB">
<feFlood flood-opacity="0" result="BackgroundImageFix"/>
<feBlend mode="normal" in="SourceGraphic" in2="BackgroundImageFix" result="shape"/>
<feGaussianBlur stdDeviation="1" result="effect1_foregroundBlur_79_5160"/>
</filter>
<filter id="filter5_f_79_5160" x="52" y="3379" width="29" height="27" filterUnits="userSpaceOnUse" color-interpolation-filters="sRGB">
<feFlood flood-opacity="0" result="BackgroundImageFix"/>
<feBlend mode="normal" in="SourceGraphic" in2="BackgroundImageFix" result="shape"/>
<feGaussianBlur stdDeviation="1" result="effect1_foregroundBlur_79_5160"/>
</filter>
<filter id="filter6_f_79_5160" x="39" y="4041" width="23" height="23" filterUnits="userSpaceOnUse" color-interpolation-filters="sRGB">
<feFlood flood-opacity="0" result="BackgroundImageFix"/>
<feBlend mode="normal" in="SourceGraphic" in2="BackgroundImageFix" result="shape"/>
<feGaussianBlur stdDeviation="1" result="effect1_foregroundBlur_79_5160"/>
</filter>
<filter id="filter7_f_79_5160" x="1378" y="3874" width="12" height="12" filterUnits="userSpaceOnUse" color-interpolation-filters="sRGB">
<feFlood flood-opacity="0" result="BackgroundImageFix"/>
<feBlend mode="normal" in="SourceGraphic" in2="BackgroundImageFix" result="shape"/>
<feGaussianBlur stdDeviation="1" result="effect1_foregroundBlur_79_5160"/>
</filter>
<filter id="filter8_f_79_5160" x="1839" y="4528" width="23" height="17" filterUnits="userSpaceOnUse" color-interpolation-filters="sRGB">
<feFlood flood-opacity="0" result="BackgroundImageFix"/>
<feBlend mode="normal" in="SourceGraphic" in2="BackgroundImageFix" result="shape"/>
<feGaussianBlur stdDeviation="1" result="effect1_foregroundBlur_79_5160"/>
</filter>
<filter id="filter9_f_79_5160" x="82" y="4482" width="30" height="24" filterUnits="userSpaceOnUse" color-interpolation-filters="sRGB">
<feFlood flood-opacity="0" result="BackgroundImageFix"/>
<feBlend mode="normal" in="SourceGraphic" in2="BackgroundImageFix" result="shape"/>
<feGaussianBlur stdDeviation="2" result="effect1_foregroundBlur_79_5160"/>
</filter>
<filter id="filter10_f_79_5160" x="1414" y="7452" width="39" height="34" filterUnits="userSpaceOnUse" color-interpolation-filters="sRGB">
<feFlood flood-opacity="0" result="BackgroundImageFix"/>
<feBlend mode="normal" in="SourceGraphic" in2="BackgroundImageFix" result="shape"/>
<feGaussianBlur stdDeviation="1" result="effect1_foregroundBlur_79_5160"/>
</filter>
<filter id="filter11_f_79_5160" x="1828" y="7913" width="57" height="56" filterUnits="userSpaceOnUse" color-interpolation-filters="sRGB">
<feFlood flood-opacity="0" result="BackgroundImageFix"/>
<feBlend mode="normal" in="SourceGraphic" in2="BackgroundImageFix" result="shape"/>
<feGaussianBlur stdDeviation="1" result="effect1_foregroundBlur_79_5160"/>
</filter>
<filter id="filter12_f_79_5160" x="40.3037" y="5560.06" width="28.6836" height="28.6837" filterUnits="userSpaceOnUse" color-interpolation-filters="sRGB">
<feFlood flood-opacity="0" result="BackgroundImageFix"/>
<feBlend mode="normal" in="SourceGraphic" in2="BackgroundImageFix" result="shape"/>
<feGaussianBlur stdDeviation="1" result="effect1_foregroundBlur_79_5160"/>
</filter>
<filter id="filter13_f_79_5160" x="1714" y="9082" width="74" height="52" filterUnits="userSpaceOnUse" color-interpolation-filters="sRGB">
<feFlood flood-opacity="0" result="BackgroundImageFix"/>
<feBlend mode="normal" in="SourceGraphic" in2="BackgroundImageFix" result="shape"/>
<feGaussianBlur stdDeviation="2.5" result="effect1_foregroundBlur_79_5160"/>
</filter>
<filter id="filter14_f_79_5160" x="1513" y="7717" width="43" height="43" filterUnits="userSpaceOnUse" color-interpolation-filters="sRGB">
<feFlood flood-opacity="0" result="BackgroundImageFix"/>
<feBlend mode="normal" in="SourceGraphic" in2="BackgroundImageFix" result="shape"/>
<feGaussianBlur stdDeviation="3.5" result="effect1_foregroundBlur_79_5160"/>
</filter>
<filter id="filter15_f_79_5160" x="35" y="8235" width="39" height="33" filterUnits="userSpaceOnUse" color-interpolation-filters="sRGB">
<feFlood flood-opacity="0" result="BackgroundImageFix"/>
<feBlend mode="normal" in="SourceGraphic" in2="BackgroundImageFix" result="shape"/>
<feGaussianBlur stdDeviation="3" result="effect1_foregroundBlur_79_5160"/>
</filter>
<filter id="filter16_f_79_5160" x="354.923" y="5244.72" width="37.6017" height="36.5681" filterUnits="userSpaceOnUse" color-interpolation-filters="sRGB">
<feFlood flood-opacity="0" result="BackgroundImageFix"/>
<feBlend mode="normal" in="SourceGraphic" in2="BackgroundImageFix" result="shape"/>
<feGaussianBlur stdDeviation="4.5" result="effect1_foregroundBlur_79_5160"/>
</filter>
</defs>
</svg>
