<svg xmlns="http://www.w3.org/2000/svg" width="4043" height="4034" fill="none"><path fill="url(#a)" fill-rule="evenodd" d="M70.616 2539.54C-217.34 1464.87 422.647 359.648 1500.07 70.953 2577.5-217.743 3684.36 419.417 3972.31 1494.08c213.21 795.72-82.31 1608.2-687.46 2093.56-.95-.9-2.33-1.31-3.68-.94-2.07.55-3.3 2.68-2.74 4.74.09.36.23.69.41.99-210.85 167.8-458.96 296.01-735.99 370.24C1465.43 4251.36 358.572 3614.2 70.616 2539.54ZM3279.47 3593.22c-210.96 167.87-459.19 296.15-736.36 370.41C1465.16 4252.47 357.749 3615 69.65 2539.8-218.449 1464.6 421.857 358.825 1499.81 69.987 2577.77-218.851 3685.18 418.622 3973.28 1493.82c213.32 796.12-82.36 1608.99-687.81 2094.6a3.863 3.863 0 0 1-2.3 5.76c-1.37.37-2.76-.04-3.7-.96Zm371.87-2138.16C3427.2 618.558 2620.28 93.4 1782.5 197.274 2678.7 78.556 3545.12 638.335 3784.83 1532.95c260.73 973.04-318.67 1973.73-1294.12 2235.1-194.66 52.16-390.38 70.93-581.06 59.84a3.882 3.882 0 0 0-4.87-3.43 3.842 3.842 0 0 0-2.79 2.97c-761.73-47.55-1441.578-571.71-1649.576-1347.97C12.702 1584.84 483.154 666.85 1318.65 321.561 541.172 650.493 104.936 1508.76 329.077 2345.26 574.252 3260.27 1516.72 3802.75 2434.14 3556.93c144.73-38.78 280.19-94.87 404.74-165.42a3.87 3.87 0 0 0 3.85 1.11c2.07-.55 3.3-2.68 2.74-4.74l-.03-.11c660.72-378.13 1011.72-1164.59 805.9-1932.71ZM2490.97 3769.01c-194.77 52.19-390.59 70.98-581.37 59.88a3.904 3.904 0 0 1-2.81 3.06c-2.07.55-4.2-.68-4.75-2.74-.07-.27-.11-.53-.13-.79-762.14-47.58-1442.351-572.02-1650.462-1348.7C-9.42 1506.15 570.296 504.912 1546.28 243.398 2522.26-18.116 3524.93 559.121 3785.8 1532.69c260.86 973.57-318.85 1974.81-1294.83 2236.32Zm353.77-382.56c660.12-377.82 1010.78-1163.57 805.15-1931C3404.93 541.25 2463.29-.76 1546.67 244.847 630.047 490.455 85.566 1430.67 330.526 2344.87c244.96 914.21 1186.604 1456.22 2103.224 1210.61 144.59-38.74 279.92-94.77 404.35-165.25a3.863 3.863 0 0 1 2.63-5.09c1.52-.41 3.08.15 4.01 1.31ZM549.165 2285.62C336.308 1491.23 808.851 674.386 1604.63 461.158c795.78-213.227 1613.43 257.907 1826.29 1052.302 193.2 721.04-178.27 1460.58-843.59 1750.45-1.46-2.36-4.34-3.6-7.16-2.84a6.455 6.455 0 0 0-4.57 7.89c-64.11 27.28-130.9 50.41-200.15 68.96-795.77 213.23-1613.428-257.91-1826.285-1052.3Zm2883.685-772.68c193.46 722.02-178.52 1462.56-844.74 1752.81.84 3.41-1.19 6.88-4.6 7.79-2.78.75-5.63-.44-7.11-2.75-64.2 27.33-131.09 50.48-200.43 69.06-796.84 213.51-1615.593-258.25-1828.737-1053.71C334.09 1490.68 807.27 672.739 1604.11 459.227c796.84-213.513 1615.6 258.25 1828.74 1053.713ZM703.224 2196.87C514.829 1493.77 932.916 770.846 1637.05 582.172c704.14-188.673 1427.68 228.358 1616.07 931.458 141.46 527.91-59 1067-465.72 1382.74a7.753 7.753 0 0 0-7.25-1.78c-4.13 1.11-6.58 5.36-5.48 9.49.15.56.36 1.09.61 1.58-132.26 100.23-285.76 177.06-455.99 222.67C1615.16 3317 891.619 2899.97 703.224 2196.87ZM2776.43 2907.3c-132.45 100.36-286.16 177.29-456.62 222.96-705.2 188.96-1429.836-228.7-1618.518-932.87C512.611 1493.22 931.334 769.199 1636.54 580.24c705.2-188.958 1429.83 228.703 1618.52 932.87 141.66 528.69-59.07 1068.57-466.37 1384.79.42.65.74 1.38.95 2.17 1.11 4.14-1.34 8.39-5.47 9.49-2.9.78-5.85-.19-7.74-2.26Z" clip-rule="evenodd"/><defs><linearGradient id="a" x1="2521.26" x2="2060.45" y1="3884.58" y2="2164.81" gradientUnits="userSpaceOnUse"><stop stop-color="#fff" stop-opacity="0"/><stop offset="1" stop-color="#fff"/></linearGradient></defs></svg>