<svg width="1920" height="1052" viewBox="0 0 1920 1052" fill="none" xmlns="http://www.w3.org/2000/svg">
<path fill-rule="evenodd" clip-rule="evenodd" d="M-1461.38 -442.461C-1749.34 -1517.13 -1109.35 -2622.35 -31.9271 -2911.05C1045.5 -3199.74 2152.36 -2562.58 2440.31 -1487.92C2653.52 -692.197 2358 120.277 1752.85 605.639C1751.9 604.737 1750.52 604.335 1749.17 604.698C1747.1 605.252 1745.87 607.376 1746.43 609.443C1746.52 609.8 1746.66 610.132 1746.84 610.433C1535.99 778.227 1287.88 906.439 1010.85 980.669C-66.5709 1269.36 -1173.43 632.204 -1461.38 -442.461ZM1747.47 611.218C1536.51 779.094 1288.28 907.368 1011.11 981.634C-66.8434 1270.47 -1174.25 632.999 -1462.35 -442.202C-1750.45 -1517.4 -1110.14 -2623.17 -32.1859 -2912.01C1045.77 -3200.85 2153.18 -2563.38 2441.28 -1488.18C2654.6 -692.061 2358.92 120.815 1753.47 606.417C1753.66 606.727 1753.81 607.069 1753.91 607.438C1754.47 609.505 1753.24 611.629 1751.17 612.183C1749.8 612.55 1748.41 612.137 1747.47 611.218ZM2119.34 -1526.94C1895.2 -2363.44 1088.28 -2888.6 250.497 -2784.73C1146.7 -2903.44 2013.12 -2343.66 2252.83 -1449.05C2513.56 -476.011 1934.16 524.677 958.707 786.049C764.047 838.208 568.325 856.983 377.645 845.888C377.626 845.659 377.587 845.429 377.526 845.2C376.972 843.133 374.847 841.907 372.78 842.46C371.315 842.853 370.272 844.035 369.986 845.426C-391.743 797.876 -1071.59 273.718 -1279.59 -502.539C-1519.3 -1397.16 -1048.85 -2315.15 -213.352 -2660.44C-990.828 -2331.51 -1427.06 -1473.24 -1202.92 -636.737C-957.748 278.269 -15.2802 820.75 902.137 574.929C1046.87 536.148 1182.33 480.065 1306.88 409.511C1307.83 410.532 1309.29 411.009 1310.73 410.624C1312.8 410.07 1314.03 407.945 1313.47 405.878C1313.46 405.844 1313.45 405.809 1313.44 405.775C1974.16 27.6419 2325.16 -758.819 2119.34 -1526.94ZM958.966 787.015C764.203 839.201 568.378 857.987 377.598 846.887C377.34 848.318 376.284 849.544 374.786 849.946C372.719 850.5 370.594 849.273 370.04 847.206C369.97 846.945 369.929 846.683 369.914 846.423C-392.228 798.844 -1072.44 274.401 -1280.55 -502.28C-1541.42 -1475.85 -961.704 -2477.09 14.2795 -2738.6C990.263 -3000.12 1992.93 -2422.88 2253.8 -1449.31C2514.66 -475.735 1934.95 525.501 958.966 787.015ZM1312.74 404.446C1972.86 26.6315 2323.52 -759.124 2117.89 -1526.55C1872.93 -2440.75 931.289 -2982.76 14.6677 -2737.15C-901.953 -2491.54 -1446.43 -1551.33 -1201.47 -637.126C-956.514 277.077 -14.8719 819.088 901.749 573.48C1046.34 534.737 1181.67 478.712 1306.1 408.231C1306.06 408.118 1306.02 408.002 1305.99 407.884C1305.43 405.817 1306.66 403.692 1308.73 403.138C1310.25 402.729 1311.81 403.291 1312.74 404.446ZM-982.835 -696.379C-1195.69 -1490.77 -723.149 -2307.61 72.6282 -2520.84C868.405 -2734.07 1686.06 -2262.93 1898.92 -1468.54C2092.12 -747.499 1720.65 -7.96105 1055.33 281.91C1053.87 279.547 1050.99 278.314 1048.17 279.07C1044.73 279.991 1042.69 283.523 1043.6 286.964C979.49 314.244 912.696 337.367 843.454 355.921C47.6774 569.148 -769.978 98.0142 -982.835 -696.379ZM1900.85 -1469.06C2094.31 -747.036 1722.33 -6.49646 1056.11 283.755C1056.95 287.162 1054.92 290.633 1051.51 291.545C1048.73 292.291 1045.88 291.099 1044.4 288.795C980.203 316.116 913.313 339.273 843.972 357.853C47.1312 571.365 -771.623 99.6017 -984.767 -695.861C-1197.91 -1491.32 -724.73 -2309.26 72.1106 -2522.77C868.951 -2736.29 1687.71 -2264.52 1900.85 -1469.06ZM-828.776 -785.127C-1017.17 -1488.23 -599.084 -2211.15 105.054 -2399.83C809.192 -2588.5 1532.73 -2171.47 1721.12 -1468.37C1862.58 -940.457 1662.12 -401.366 1255.4 -85.6331C1253.51 -87.3601 1250.81 -88.1168 1248.15 -87.4057C1244.02 -86.2979 1241.57 -82.0486 1242.67 -77.9145C1242.82 -77.3585 1243.03 -76.8329 1243.28 -76.3422C1111.02 23.8855 957.517 100.719 787.295 146.33C83.1566 335.003 -640.381 -82.0275 -828.776 -785.127ZM1244.43 -74.7005C1111.98 25.6562 958.265 102.589 787.812 148.262C82.61 337.22 -642.026 -80.4403 -830.708 -784.609C-1019.39 -1488.78 -600.666 -2212.8 104.536 -2401.76C809.738 -2590.72 1534.37 -2173.06 1723.06 -1468.89C1864.72 -940.199 1663.99 -400.319 1256.69 -84.1017C1257.11 -83.4468 1257.43 -82.7171 1257.64 -81.926C1258.75 -77.7919 1256.3 -73.5426 1252.17 -72.4349C1249.27 -71.6592 1246.32 -72.6296 1244.43 -74.7005Z" fill="url(#paint0_linear_308_1320086)"/>
<defs>
<linearGradient id="paint0_linear_308_1320086" x1="989.263" y1="902.581" x2="528.453" y2="-817.186" gradientUnits="userSpaceOnUse">
<stop stop-color="white" stop-opacity="0"/>
<stop offset="1" stop-color="white"/>
</linearGradient>
</defs>
</svg>
