<svg width="671" height="269" viewBox="0 0 671 269" fill="none" xmlns="http://www.w3.org/2000/svg">
<g filter="url(#filter0_f_379_13180)">
<path d="M161.545 223.203L160.745 220.862L158.584 219.995L160.745 219.129L161.545 216.787L162.345 219.129L164.506 219.995L162.345 220.862L161.545 223.203Z" fill="white"/>
</g>
<g filter="url(#filter1_f_379_13180)">
<path d="M521.322 60.3423L520.922 59.0815L519.842 58.615L520.922 58.1484L521.322 56.8876L521.722 58.1484L522.803 58.615L521.722 59.0815L521.322 60.3423Z" fill="white"/>
</g>
<path d="M446.307 215.307L445.64 213.325L443.839 212.592L445.64 211.859L446.307 209.878L446.973 211.859L448.774 212.592L446.973 213.325L446.307 215.307Z" fill="white"/>
<path d="M393.993 31.2241L392.927 27.802L390.045 26.5357L392.927 25.2694L393.993 21.8472L395.06 25.2694L397.941 26.5357L395.06 27.802L393.993 31.2241Z" fill="white"/>
<path d="M17.4366 40.6006L16.3702 37.1784L13.4884 35.9121L16.3702 34.6458L17.4366 31.2237L18.503 34.6458L21.3848 35.9121L18.503 37.1784L17.4366 40.6006Z" fill="white"/>
<circle opacity="0.5" cx="641.244" cy="281.932" r="287.229" stroke="white" stroke-width="0.987041"/>
<circle cx="464.811" cy="55.1591" r="3.20788" fill="#8F7E7C"/>
<circle cx="359.444" cy="226.164" r="5.92225" fill="#977774"/>
<circle opacity="0.4" cx="516.88" cy="254.789" r="287.352" stroke="white" stroke-width="0.740281"/>
<circle cx="287.886" cy="81.0688" r="3.94816" fill="#776B6A"/>
<circle opacity="0.2" cx="484.306" cy="270.58" r="369.894" stroke="white" stroke-width="0.493521"/>
<circle cx="125.022" cy="181.747" r="2.4676" fill="#653E3B"/>
<defs>
<filter id="filter0_f_379_13180" x="156.61" y="214.814" width="9.87004" height="10.3637" filterUnits="userSpaceOnUse" color-interpolation-filters="sRGB">
<feFlood flood-opacity="0" result="BackgroundImageFix"/>
<feBlend mode="normal" in="SourceGraphic" in2="BackgroundImageFix" result="shape"/>
<feGaussianBlur stdDeviation="0.987041" result="effect1_foregroundBlur_379_13180"/>
</filter>
<filter id="filter1_f_379_13180" x="519.348" y="56.3942" width="3.94798" height="4.44163" filterUnits="userSpaceOnUse" color-interpolation-filters="sRGB">
<feFlood flood-opacity="0" result="BackgroundImageFix"/>
<feBlend mode="normal" in="SourceGraphic" in2="BackgroundImageFix" result="shape"/>
<feGaussianBlur stdDeviation="0.24676" result="effect1_foregroundBlur_379_13180"/>
</filter>
</defs>
</svg>
