<svg width="472" height="505" viewBox="0 0 472 505" fill="none" xmlns="http://www.w3.org/2000/svg">
<circle opacity="0.5" cx="416.681" cy="416.681" r="415.681" transform="matrix(-1 0 0 1 212.362 104.796)" stroke="white" stroke-width="2"/>
<circle cx="4.64567" cy="4.64567" r="4.64567" transform="matrix(-1 0 0 1 55.8381 188.418)" fill="white"/>
<circle cx="8.57662" cy="8.57662" r="8.57662" transform="matrix(-1 0 0 1 212.361 432.137)" fill="white"/>
<circle opacity="0.4" cx="480.681" cy="480.681" r="479.931" transform="matrix(-1 0 0 1 340.361 -23)" stroke="white" stroke-width="1.5"/>
<circle cx="6.59596" cy="6.59596" r="6.59596" transform="matrix(-1 0 0 1 77.1919 20)" fill="white"/>
<circle opacity="0.2" cx="536.039" cy="536.039" r="535.539" transform="matrix(-1 0 0 1 468.078 -104)" stroke="white"/>
<circle cx="3.57359" cy="3.57359" r="3.57359" transform="matrix(-1 0 0 1 471.147 445)" fill="white"/>
</svg>
