<svg width="336" height="517" viewBox="0 0 336 517" fill="none" xmlns="http://www.w3.org/2000/svg">
<circle opacity="0.5" cx="296.885" cy="296.885" r="296.173" transform="matrix(-1 0 0 1 151.308 74.6672)" stroke="white" stroke-width="1.425"/>
<circle cx="3.31004" cy="3.31004" r="3.31004" transform="matrix(-1 0 0 1 39.7842 134.249)" fill="white"/>
<circle cx="6.11084" cy="6.11084" r="6.11084" transform="matrix(-1 0 0 1 151.307 307.898)" fill="white"/>
<circle opacity="0.4" cx="342.485" cy="342.485" r="341.951" transform="matrix(-1 0 0 1 242.507 -16.3872)" stroke="white" stroke-width="1.06875"/>
<circle cx="4.69962" cy="4.69962" r="4.69962" transform="matrix(-1 0 0 1 54.9997 14.25)" fill="white"/>
<circle opacity="0.2" cx="381.928" cy="381.928" r="381.571" transform="matrix(-1 0 0 1 333.506 -74.1001)" stroke="white" stroke-width="0.7125"/>
<circle cx="2.54618" cy="2.54618" r="2.54618" transform="matrix(-1 0 0 1 335.692 317.063)" fill="white"/>
</svg>
